M48
;Layer_Color=9474304
;FILE_FORMAT=4:4
METRIC,LZ
;TYPE=PLATED
T1F00S00C0.3000
T2F00S00C0.4000
T3F00S00C0.6000
T4F00S00C1.0000
T5F00S00C1.3000
;TYPE=NON_PLATED
T6F00S00C1.8999
T7F00S00C3.1001
%
T01
X0012954Y0013716
X0014605Y0016891
X0016002
X0018669Y0015494
X0020828Y0010168
X0027432Y0012192
X0026162Y0014732
X00228854Y00202438
X0012954Y0021844
Y0023495
Y00245745
Y0025654
Y00267335
Y0027813
X0019939Y00288925
T02
X0002699Y0006845
X0004201Y000682
Y000936
X0002699Y00093849
Y00119499
X0004201Y00119249
Y00144649
X0002699Y00144899
Y00170299
X0004201Y00170049
Y001952
X0002699Y0019545
Y00220849
X0004201Y002206
Y00246
X0002699Y0024625
Y00271899
X0004201Y00271649
Y002968
X0002699Y0029705
Y00322699
X0004201Y00322449
Y0034785
X0002699Y00348099
Y0037325
X0004201Y00373
X0007299
X0008801
Y0034785
X0007299
Y00322449
X0008801
Y002968
X0007299
Y00271649
X0008801
Y00246
X0007299
Y002206
X0008801
Y001952
X0007299
Y00170049
X0008801
Y00144649
X0007299
Y00119249
X0008801
Y000936
X0007299
Y000682
X0008801
X0026543Y0030353
X0008801Y003984
X0007299
Y004238
X0008801
X0004201
X0002699Y00424049
Y00398649
X0004201Y003984
T03
X0016129Y002159
X0021463Y00242316
X0019939Y003048
T04
X000575Y000809
Y004111
T05
X000575Y001063
Y003857
T06
X0007099Y0002601
X00431009
Y00465989
X0007099
T07
X0003101Y0002601
X00470989
Y00465989
X0003101
M30
