G04*
G04 #@! TF.GenerationSoftware,Altium Limited,Altium Designer,19.1.9 (167)*
G04*
G04 Layer_Color=32896*
%FSLAX44Y44*%
%MOMM*%
G71*
G01*
G75*
%ADD10C,0.2540*%
%ADD60C,0.0762*%
%ADD61C,0.3810*%
D10*
X278894Y403857D02*
X273816Y393700D01*
X268737Y403857D01*
X263659Y393700D02*
Y396239D01*
X261120D01*
Y393700D01*
X263659D01*
X250963D02*
X245885D01*
X248424D01*
Y408935D01*
X250963Y406396D01*
X238267Y393700D02*
Y396239D01*
X235728D01*
Y393700D01*
X238267D01*
X225571Y406396D02*
X223032Y408935D01*
X217954D01*
X215415Y406396D01*
Y396239D01*
X217954Y393700D01*
X223032D01*
X225571Y396239D01*
Y406396D01*
X316982Y433066D02*
X314443Y435605D01*
X309364D01*
X306825Y433066D01*
Y422909D01*
X309364Y420370D01*
X314443D01*
X316982Y422909D01*
Y433066D01*
X291590Y435605D02*
X301747D01*
Y427988D01*
X296668Y430527D01*
X294129D01*
X291590Y427988D01*
Y422909D01*
X294129Y420370D01*
X299207D01*
X301747Y422909D01*
X286511Y420370D02*
Y422909D01*
X283972D01*
Y420370D01*
X286511D01*
X273816D02*
X268737D01*
X271276D01*
Y435605D01*
X273816Y433066D01*
X261120D02*
X258581Y435605D01*
X253502D01*
X250963Y433066D01*
Y422909D01*
X253502Y420370D01*
X258581D01*
X261120Y422909D01*
Y433066D01*
X245885Y420370D02*
Y422909D01*
X243346D01*
Y420370D01*
X245885D01*
X223032D02*
X233189D01*
X223032Y430527D01*
Y433066D01*
X225571Y435605D01*
X230650D01*
X233189Y433066D01*
X217954D02*
X215415Y435605D01*
X210336D01*
X207797Y433066D01*
Y422909D01*
X210336Y420370D01*
X215415D01*
X217954Y422909D01*
Y433066D01*
X192562Y420370D02*
X202719D01*
X192562Y430527D01*
Y433066D01*
X195101Y435605D01*
X200180D01*
X202719Y433066D01*
X187484D02*
X184944Y435605D01*
X179866D01*
X177327Y433066D01*
Y422909D01*
X179866Y420370D01*
X184944D01*
X187484Y422909D01*
Y433066D01*
D60*
X185607Y174516D02*
X207160Y196069D01*
X219552Y265576D02*
X263196Y309220D01*
X261041Y220854D02*
X270740Y230553D01*
X300913Y289823D02*
X324082Y312992D01*
X214703Y232708D02*
X245415Y263421D01*
X334859Y352864D02*
X372576Y390581D01*
X392512Y410517D02*
X423224Y441230D01*
X289060Y162662D02*
X372576Y246178D01*
X416220Y289823D02*
X493270Y366873D01*
X468485Y371184D02*
X488960Y391659D01*
X185068Y175055D02*
X206621Y196607D01*
X184529Y175594D02*
X206082Y197146D01*
X190995Y169128D02*
X212548Y190681D01*
X190456Y169667D02*
X212009Y191219D01*
X189918Y170205D02*
X211470Y191758D01*
X189379Y170744D02*
X210931Y192297D01*
X188840Y171283D02*
X210392Y192836D01*
X188301Y171822D02*
X209854Y193375D01*
X187762Y172361D02*
X209315Y193913D01*
X187223Y172900D02*
X208776Y194452D01*
X186685Y173438D02*
X208237Y194991D01*
X186146Y173977D02*
X207698Y195530D01*
X226557Y131411D02*
X239489Y144342D01*
X226018Y131950D02*
X239489Y145420D01*
X225479Y132488D02*
X239489Y146498D01*
X224940Y133027D02*
X239489Y147575D01*
X224402Y133566D02*
X239489Y148653D01*
X223863Y134105D02*
X239489Y149731D01*
X223324Y134644D02*
X239489Y150808D01*
X222785Y135183D02*
X238950Y151347D01*
X222246Y135721D02*
X238950Y152425D01*
X221708Y136260D02*
X238411Y152963D01*
X221169Y136799D02*
X237333Y152963D01*
X220091Y267192D02*
X261580Y308681D01*
X221169Y269347D02*
X259425Y307603D01*
X221708Y270964D02*
X257269Y306526D01*
X223324Y273658D02*
X255114Y305448D01*
X214703Y233786D02*
X247571Y266653D01*
X335398Y354480D02*
X374731Y393814D01*
X389279Y408362D02*
X422147Y441230D01*
X214703Y234863D02*
X249187Y269347D01*
X335398Y355558D02*
X376886Y397047D01*
X386046Y406207D02*
X421069Y441230D01*
X214703Y235941D02*
X292831Y314069D01*
X335398Y356636D02*
X419992Y441230D01*
X214703Y237019D02*
X291754Y314069D01*
X335936Y358252D02*
X418914Y441230D01*
X214703Y238096D02*
X290676Y314069D01*
X336475Y359869D02*
X417836Y441230D01*
X214703Y239174D02*
X289598Y314069D01*
X338092Y362563D02*
X416759Y441230D01*
X214703Y240252D02*
X288521Y314069D01*
X341863Y367412D02*
X415681Y441230D01*
X214703Y241329D02*
X287443Y314069D01*
X341863Y368490D02*
X414604Y441230D01*
X214703Y242407D02*
X286365Y314069D01*
X341863Y369567D02*
X413526Y441230D01*
X214703Y243484D02*
X285288Y314069D01*
X341863Y370645D02*
X412448Y441230D01*
X214703Y244562D02*
X283671Y313530D01*
X341863Y371722D02*
X411371Y441230D01*
X214703Y245640D02*
X282594Y313530D01*
X342402Y373339D02*
X410293Y441230D01*
X214703Y246717D02*
X281516Y313530D01*
X342402Y374417D02*
X408676Y440691D01*
X215242Y248334D02*
X280438Y313530D01*
X342402Y375494D02*
X407599Y440691D01*
X215242Y249411D02*
X279361Y313530D01*
X342402Y376572D02*
X406521Y440691D01*
X215781Y251028D02*
X277744Y312992D01*
X342941Y378188D02*
X404905Y440152D01*
X215781Y252106D02*
X276667Y312992D01*
X342941Y379266D02*
X403827Y440152D01*
X215781Y253183D02*
X275050Y312453D01*
X343480Y380882D02*
X402211Y439613D01*
X216319Y254799D02*
X273973Y312453D01*
X343480Y381960D02*
X401133Y439613D01*
X216858Y256416D02*
X272356Y311914D01*
X216858Y257494D02*
X270740Y311375D01*
X217397Y259110D02*
X269662Y311375D01*
X217936Y260727D02*
X268046Y310836D01*
X218475Y262343D02*
X266429Y310298D01*
X219014Y263959D02*
X264813Y309759D01*
X299836Y289823D02*
X323005Y312992D01*
X298758Y289823D02*
X321927Y312992D01*
X425380Y416444D02*
X445316Y436380D01*
X297680Y289823D02*
X320850Y312992D01*
X424302Y416444D02*
X444238Y436380D01*
X296603Y289823D02*
X319772Y312992D01*
X423224Y416444D02*
X443699Y436919D01*
X295525Y289823D02*
X318694Y312992D01*
X422686Y416983D02*
X442622Y436919D01*
X294448Y289823D02*
X317617Y312992D01*
X421608Y416983D02*
X442083Y437458D01*
X293370Y289823D02*
X316539Y312992D01*
X420530Y416983D02*
X441544Y437997D01*
X292292Y289823D02*
X315461Y312992D01*
X419453Y416983D02*
X440467Y437997D01*
X291215Y289823D02*
X314923Y313530D01*
X418375Y416983D02*
X439389Y437997D01*
X290137Y289823D02*
X313845Y313530D01*
X417298Y416983D02*
X438850Y438536D01*
X289060Y289823D02*
X312767Y313530D01*
X416220Y416983D02*
X437772Y438536D01*
X287982Y289823D02*
X311690Y313530D01*
X415142Y416983D02*
X437234Y439074D01*
X286365Y289284D02*
X310612Y313530D01*
X414065Y416983D02*
X436156Y439074D01*
X285827Y289823D02*
X309534Y313530D01*
X412987Y416983D02*
X435079Y439074D01*
X284210Y289284D02*
X308457Y313530D01*
X411371Y416444D02*
X434540Y439613D01*
X283132Y289284D02*
X307379Y313530D01*
X410293Y416444D02*
X433462Y439613D01*
X282055Y289284D02*
X306302Y313530D01*
X353717Y360946D02*
X366649Y373878D01*
X409215Y416444D02*
X432384Y439613D01*
X280438Y288745D02*
X305224Y313530D01*
X352640Y360946D02*
X366649Y374955D01*
X407599Y415905D02*
X431846Y440152D01*
X279361Y288745D02*
X304146Y313530D01*
X350484Y359869D02*
X367188Y376572D01*
X406521Y415905D02*
X430768Y440152D01*
X277744Y288206D02*
X303069Y313530D01*
X335936Y346398D02*
X367727Y378188D01*
X404905Y415367D02*
X429690Y440152D01*
X276128Y287667D02*
X301991Y313530D01*
X335398Y346937D02*
X367727Y379266D01*
X403288Y414828D02*
X429151Y440691D01*
X274512Y287129D02*
X300913Y313530D01*
X335398Y348015D02*
X368265Y380882D01*
X402211Y414828D02*
X428074Y440691D01*
X215242Y228936D02*
X241644Y255338D01*
X272895Y286590D02*
X299836Y313530D01*
X334859Y348553D02*
X368804Y382499D01*
X400594Y414289D02*
X426996Y440691D01*
X214703Y229475D02*
X242721Y257494D01*
X271279Y286051D02*
X298758Y313530D01*
X335398Y350170D02*
X369882Y384654D01*
X398439Y413211D02*
X425919Y440691D01*
X214703Y230553D02*
X243260Y259110D01*
X269662Y285512D02*
X297680Y313530D01*
X334859Y350709D02*
X370421Y386270D01*
X396823Y412673D02*
X425380Y441230D01*
X214703Y231630D02*
X244338Y261265D01*
X334859Y351786D02*
X371498Y388426D01*
X394667Y411595D02*
X424302Y441230D01*
X321388Y289823D02*
X344019Y312453D01*
X320311Y289823D02*
X342941Y312453D01*
X319233Y289823D02*
X341863Y312453D01*
X318155Y289823D02*
X340786Y312453D01*
X317078Y289823D02*
X339708Y312453D01*
X316000Y289823D02*
X338630Y312453D01*
X314923Y289823D02*
X337553Y312453D01*
X255653Y231630D02*
X268046Y244023D01*
X313845Y289823D02*
X336475Y312453D01*
X255114Y232169D02*
X268584Y245640D01*
X312767Y289823D02*
X335398Y312453D01*
X254575Y232708D02*
X294986Y273119D01*
X311690Y289823D02*
X334320Y312453D01*
X354256Y332389D02*
X374192Y352325D01*
X254575Y233786D02*
X293909Y273119D01*
X310612Y289823D02*
X333242Y312453D01*
X353717Y332928D02*
X374192Y353403D01*
X254575Y234863D02*
X293370Y273658D01*
X309534Y289823D02*
X332165Y312453D01*
X352640Y332928D02*
X374192Y354480D01*
X254037Y235402D02*
X291754Y273119D01*
X308457Y289823D02*
X331087Y312453D01*
X351562Y332928D02*
X374192Y355558D01*
X254037Y236480D02*
X291215Y273658D01*
X307379Y289823D02*
X330009Y312453D01*
X350484Y332928D02*
X373653Y356097D01*
X254037Y237557D02*
X290137Y273658D01*
X306302Y289823D02*
X328932Y312453D01*
X349407Y332928D02*
X373653Y357174D01*
X254037Y238635D02*
X289060Y273658D01*
X305224Y289823D02*
X327854Y312453D01*
X361800Y346398D02*
X373115Y357713D01*
X254037Y239713D02*
X287982Y273658D01*
X304146Y289823D02*
X326777Y312453D01*
X363416Y349092D02*
X373115Y358791D01*
X254575Y241329D02*
X286904Y273658D01*
X303069Y289823D02*
X325699Y312453D01*
X254037Y241868D02*
X285827Y273658D01*
X301991Y289823D02*
X325160Y312992D01*
X271817Y210078D02*
X281516Y219776D01*
X271279Y210617D02*
X280438Y219776D01*
X270740Y211155D02*
X279900Y220315D01*
X270201Y211694D02*
X279361Y220854D01*
X269662Y212233D02*
X278822Y221393D01*
X269123Y212772D02*
X278283Y221932D01*
X268584Y213311D02*
X277206Y221932D01*
X268046Y213850D02*
X276667Y222471D01*
X267507Y214388D02*
X276128Y223009D01*
X266968Y214927D02*
X275589Y223548D01*
X266429Y215466D02*
X275050Y224087D01*
X265890Y216005D02*
X274512Y224626D01*
X265352Y216544D02*
X273973Y225165D01*
X264813Y217083D02*
X273434Y225704D01*
X264274Y217621D02*
X273434Y226781D01*
X263735Y218160D02*
X272895Y227320D01*
X263196Y218699D02*
X272356Y227859D01*
X262658Y219238D02*
X271817Y228398D01*
X262119Y219776D02*
X271279Y228936D01*
X261580Y220315D02*
X270740Y229475D01*
X468485Y372261D02*
X488421Y392197D01*
X467946Y372800D02*
X487882Y392736D01*
X293909Y203073D02*
X324621Y233786D01*
X351023Y260188D02*
X360722Y269886D01*
X292831Y203073D02*
X324621Y234863D01*
X349946Y260188D02*
X359644Y269886D01*
X291754Y203073D02*
X324621Y235941D01*
X334859Y246178D02*
X359105Y270425D01*
X290676Y203073D02*
X325160Y237557D01*
X334320Y246717D02*
X358028Y270425D01*
X289598Y203073D02*
X324621Y238096D01*
X334320Y247795D02*
X357489Y270964D01*
X288521Y203073D02*
X324621Y239174D01*
X334320Y248873D02*
X356411Y270964D01*
X287443Y203073D02*
X324621Y240252D01*
X334320Y249950D02*
X355334Y270964D01*
X286365Y203073D02*
X324621Y241329D01*
X334320Y251028D02*
X354256Y270964D01*
X285827Y203612D02*
X324621Y242407D01*
X334320Y252106D02*
X353178Y270964D01*
X284749Y203612D02*
X324082Y242946D01*
X334320Y253183D02*
X352101Y270964D01*
X283671Y203612D02*
X324082Y244023D01*
X334320Y254261D02*
X351023Y270964D01*
X283132Y204151D02*
X296064Y217083D01*
X334320Y255338D02*
X349407Y270425D01*
X282055Y204151D02*
X294448Y216544D01*
X334859Y256955D02*
X348329Y270425D01*
X335398Y258571D02*
X346713Y269886D01*
X336475Y260727D02*
X344557Y268809D01*
X287982Y162662D02*
X373115Y247795D01*
X415142Y289823D02*
X493270Y367951D01*
X286904Y162662D02*
X324082Y199840D01*
X328932Y204690D02*
X373115Y248873D01*
X414065Y289823D02*
X451243Y327001D01*
X456092Y331850D02*
X493270Y369028D01*
X285827Y162662D02*
X318155Y194991D01*
X333242Y210078D02*
X373115Y249950D01*
X412987Y289823D02*
X445855Y322690D01*
X460403Y337238D02*
X493270Y370106D01*
X284749Y162662D02*
X316000Y193913D01*
X334859Y212772D02*
X373115Y251028D01*
X411909Y289823D02*
X443699Y321613D01*
X461480Y339394D02*
X493270Y371184D01*
X283671Y162662D02*
X313306Y192297D01*
X336475Y215466D02*
X373115Y252106D01*
X410832Y289823D02*
X440467Y319457D01*
X463636Y342626D02*
X492732Y371722D01*
X283132Y163201D02*
X311690Y191758D01*
X337014Y217083D02*
X373115Y253183D01*
X409754Y289823D02*
X438850Y318919D01*
X464174Y344243D02*
X492732Y372800D01*
X282055Y163201D02*
X309534Y190681D01*
X338092Y219238D02*
X373115Y254261D01*
X408676Y289823D02*
X436695Y317841D01*
X465252Y346398D02*
X492732Y373878D01*
X280977Y163201D02*
X307918Y190142D01*
X338630Y220854D02*
X373115Y255338D01*
X407599Y289823D02*
X435079Y317302D01*
X465791Y348015D02*
X492732Y374955D01*
X339169Y222471D02*
X373115Y256416D01*
X406521Y289823D02*
X433462Y316763D01*
X466330Y349631D02*
X492732Y376033D01*
X339708Y224087D02*
X372576Y256955D01*
X405444Y289823D02*
X431846Y316224D01*
X466869Y351247D02*
X492732Y377111D01*
X361800Y247256D02*
X372037Y257494D01*
X404366Y289823D02*
X430229Y315686D01*
X467407Y352864D02*
X492193Y377649D01*
X362338Y248873D02*
X372037Y258571D01*
X403288Y289823D02*
X429151Y315686D01*
X467407Y353942D02*
X492193Y378727D01*
X402211Y289823D02*
X427535Y315147D01*
X467946Y355558D02*
X491654Y379266D01*
X401133Y289823D02*
X426457Y315147D01*
X467946Y356636D02*
X492193Y380882D01*
X400055Y289823D02*
X424841Y314608D01*
X468485Y358252D02*
X491654Y381421D01*
X398978Y289823D02*
X423763Y314608D01*
X468485Y359330D02*
X491654Y382499D01*
X397900Y289823D02*
X422686Y314608D01*
X468485Y360407D02*
X491115Y383038D01*
X396823Y289823D02*
X421608Y314608D01*
X468485Y361485D02*
X491115Y384115D01*
X395745Y289823D02*
X420530Y314608D01*
X469024Y363101D02*
X491115Y385193D01*
X394667Y289823D02*
X418914Y314069D01*
X469024Y364179D02*
X490576Y385732D01*
X394128Y290361D02*
X417836Y314069D01*
X469024Y365257D02*
X490576Y386809D01*
X393051Y290361D02*
X416759Y314069D01*
X469024Y366334D02*
X490038Y387348D01*
X391973Y290361D02*
X415681Y314069D01*
X469024Y367412D02*
X490038Y388426D01*
X390896Y290361D02*
X414604Y314069D01*
X469024Y368490D02*
X489499Y388965D01*
X389818Y290361D02*
X413526Y314069D01*
X468485Y369028D02*
X489499Y390042D01*
X388740Y290361D02*
X412448Y314069D01*
X468485Y370106D02*
X488960Y390581D01*
X323544Y170205D02*
X358567Y205229D01*
X321927Y169667D02*
X359105Y206845D01*
X319772Y168589D02*
X360183Y209000D01*
X318155Y168050D02*
X360722Y210617D01*
X316000Y166973D02*
X361261Y212233D01*
X314923Y166973D02*
X361800Y213850D01*
X312767Y165895D02*
X362338Y215466D01*
X311690Y165895D02*
X362877Y217083D01*
X310073Y165356D02*
X363416Y218699D01*
X308457Y164817D02*
X363955Y220315D01*
X307379Y164817D02*
X363955Y221393D01*
X434001Y291439D02*
X491654Y349092D01*
X305763Y164279D02*
X364494Y223009D01*
X432923Y291439D02*
X491654Y350170D01*
X304146Y163740D02*
X364494Y224087D01*
X431846Y291439D02*
X491654Y351247D01*
X303069Y163740D02*
X365032Y225704D01*
X430229Y290900D02*
X492193Y352864D01*
X301991Y163740D02*
X365032Y226781D01*
X429151Y290900D02*
X492732Y354480D01*
X300375Y163201D02*
X365032Y227859D01*
X427535Y290361D02*
X492732Y355558D01*
X299297Y163201D02*
X365571Y229475D01*
X426457Y290361D02*
X492732Y356636D01*
X298219Y163201D02*
X365571Y230553D01*
X425380Y290361D02*
X492732Y357713D01*
X296603Y162662D02*
X365571Y231630D01*
X424302Y290361D02*
X492732Y358791D01*
X295525Y162662D02*
X365571Y232708D01*
X423224Y290361D02*
X492732Y359869D01*
X294448Y162662D02*
X366110Y234325D01*
X421608Y289823D02*
X493270Y361485D01*
X293370Y162662D02*
X366110Y235402D01*
X420530Y289823D02*
X493270Y362563D01*
X292292Y162662D02*
X369882Y240252D01*
X419453Y289823D02*
X493270Y363640D01*
X291215Y162662D02*
X371498Y242946D01*
X418375Y289823D02*
X493270Y364718D01*
X290137Y162662D02*
X372037Y244562D01*
X417298Y289823D02*
X493270Y365796D01*
X153817Y85611D02*
X163515Y95310D01*
X140885Y100698D02*
X150045Y109858D01*
X104785Y93694D02*
X125798Y114707D01*
X152200Y54899D02*
X164054Y66753D01*
X200694Y132488D02*
X209854Y141648D01*
X155433Y115246D02*
X164593Y124406D01*
X187223Y147037D02*
X196383Y156196D01*
X150584Y139493D02*
X172136Y161046D01*
X197461Y100160D02*
X209854Y112552D01*
X229790Y132488D02*
X237333Y140032D01*
X245415Y177210D02*
X263196Y194991D01*
X231406Y191219D02*
X248648Y208461D01*
X220091Y209000D02*
X240027Y228936D01*
X264274Y166973D02*
X284749Y187448D01*
X310612Y242407D02*
X320311Y252106D01*
X297680Y257494D02*
X306840Y266653D01*
X254575Y243484D02*
X284210Y273119D01*
X265352Y283357D02*
X295525Y313530D01*
X326238Y171822D02*
X356950Y202534D01*
X305224Y207923D02*
X320311Y223009D01*
X360722Y292517D02*
X380658Y312453D01*
X330009Y289823D02*
X349946Y309759D01*
X345635Y334544D02*
X353178Y342088D01*
X356950Y259649D02*
X365032Y267731D01*
X387663Y290361D02*
X411371Y314069D01*
X346713Y392736D02*
X390357Y436380D01*
X453398Y298982D02*
X484111Y329695D01*
X460942Y392736D02*
X478722Y410517D01*
X447471Y407284D02*
X465252Y425065D01*
X426996Y415905D02*
X446932Y435841D01*
X104785Y94771D02*
X124182Y114169D01*
X105323Y96388D02*
X122565Y113630D01*
X106401Y98543D02*
X119871Y112014D01*
X108018Y101237D02*
X117716Y110936D01*
X139808Y100698D02*
X149506Y110397D01*
X139269Y101237D02*
X148429Y110397D01*
X138730Y101776D02*
X147890Y110936D01*
X138191Y102315D02*
X147351Y111475D01*
X109095Y74296D02*
X117716Y82917D01*
X137114Y102315D02*
X146273Y111475D01*
X108556Y74835D02*
X117177Y83456D01*
X136575Y102854D02*
X145735Y112014D01*
X108018Y75374D02*
X117177Y84534D01*
X136036Y103392D02*
X145196Y112552D01*
X107479Y75913D02*
X116639Y85073D01*
X134958Y103392D02*
X144657Y113091D01*
X106940Y76452D02*
X116100Y85611D01*
X133881Y103392D02*
X143579Y113091D01*
X106401Y76990D02*
X115561Y86150D01*
X133342Y103931D02*
X143041Y113630D01*
X105862Y77529D02*
X115561Y87228D01*
X132264Y103931D02*
X141963Y113630D01*
X105862Y78607D02*
X115561Y88306D01*
X131187Y103931D02*
X141424Y114169D01*
X105323Y79146D02*
X115022Y88844D01*
X130109Y103931D02*
X140885Y114707D01*
X105323Y80223D02*
X115022Y89922D01*
X129031Y103931D02*
X139808Y114707D01*
X104785Y80762D02*
X115561Y91538D01*
X127954Y103931D02*
X138730Y114707D01*
X104246Y81301D02*
X115561Y92616D01*
X126337Y103392D02*
X138191Y115246D01*
X104785Y82917D02*
X116100Y94233D01*
X124721Y102854D02*
X137114Y115246D01*
X104246Y83456D02*
X117177Y96388D01*
X103707Y83995D02*
X134958Y115246D01*
X103707Y85073D02*
X133881Y115246D01*
X103707Y86150D02*
X132803Y115246D01*
X103707Y87228D02*
X131725Y115246D01*
X103707Y88306D02*
X130648Y115246D01*
X103707Y89383D02*
X129570Y115246D01*
X103707Y90461D02*
X128492Y115246D01*
X104246Y92077D02*
X127415Y115246D01*
X153817Y86689D02*
X162977Y95849D01*
X153278Y87228D02*
X162977Y96927D01*
X153278Y88306D02*
X162438Y97465D01*
X152739Y88844D02*
X161899Y98004D01*
X152200Y89383D02*
X161360Y98543D01*
X151662Y89922D02*
X160821Y99082D01*
X151123Y90461D02*
X160283Y99621D01*
X150584Y91000D02*
X159744Y100160D01*
X150045Y91538D02*
X159205Y100698D01*
X149506Y92077D02*
X158666Y101237D01*
X149506Y93155D02*
X158127Y101776D01*
X148968Y93694D02*
X157589Y102315D01*
X148429Y94233D02*
X157050Y102854D01*
X147890Y94771D02*
X156511Y103392D01*
X147351Y95310D02*
X155972Y103931D01*
X146812Y95849D02*
X155433Y104470D01*
X146273Y96388D02*
X154895Y105009D01*
X145735Y96927D02*
X154356Y105548D01*
X145196Y97465D02*
X153817Y106087D01*
X144118Y97465D02*
X153278Y106625D01*
X143579Y98004D02*
X152739Y107164D01*
X143041Y98543D02*
X152200Y107703D01*
X142502Y99082D02*
X151662Y108242D01*
X141963Y99621D02*
X151123Y108781D01*
X141424Y100160D02*
X150584Y109319D01*
Y54360D02*
X165132Y68908D01*
X147890Y52744D02*
X166210Y71063D01*
X146273Y52205D02*
X166210Y72141D01*
X145196Y52205D02*
X167287Y74296D01*
X143579Y51666D02*
X167287Y75374D01*
X142502Y51666D02*
X167826Y76990D01*
X140885Y51127D02*
X167287Y77529D01*
X139808Y51127D02*
X167826Y79146D01*
X138730Y51127D02*
X167826Y80223D01*
X138191Y51666D02*
X167826Y81301D01*
X137114Y51666D02*
X167826Y82379D01*
X136036Y51666D02*
X167826Y83456D01*
X135497Y52205D02*
X147351Y64059D01*
X134419Y52205D02*
X145735Y63520D01*
X155433Y73219D02*
X167287Y85073D01*
X133342Y52205D02*
X144118Y62981D01*
X155972Y74835D02*
X167287Y86150D01*
X132803Y52744D02*
X143041Y62981D01*
X155972Y75913D02*
X166748Y86689D01*
X132264Y53283D02*
X141963Y62981D01*
X155972Y76990D02*
X166748Y87767D01*
X131187Y53283D02*
X140885Y62981D01*
X156511Y78607D02*
X166748Y88844D01*
X130648Y53821D02*
X139808Y62981D01*
X155972Y79146D02*
X166210Y89383D01*
X129570Y53821D02*
X139269Y63520D01*
X155972Y80223D02*
X165671Y89922D01*
X129031Y54360D02*
X138191Y63520D01*
X155972Y81301D02*
X165671Y91000D01*
X128492Y54899D02*
X137652Y64059D01*
X155433Y81840D02*
X165671Y92077D01*
X127954Y55438D02*
X137114Y64598D01*
X155433Y82917D02*
X165132Y92616D01*
X127415Y55977D02*
X136575Y65136D01*
X154895Y83456D02*
X164593Y93155D01*
X126876Y56515D02*
X135497Y65136D01*
X154895Y84534D02*
X164054Y93694D01*
X126337Y57054D02*
X134958Y65675D01*
X154356Y85073D02*
X163515Y94233D01*
X151123Y141110D02*
X170520Y160507D01*
X151662Y142726D02*
X168904Y159968D01*
X152739Y144881D02*
X166748Y158890D01*
X153817Y147037D02*
X164054Y157274D01*
X154895Y115785D02*
X164054Y124945D01*
X186146Y147037D02*
X195306Y156196D01*
X154356Y116324D02*
X164054Y126023D01*
X185607Y147575D02*
X194767Y156735D01*
X154356Y117402D02*
X163515Y126561D01*
X185068Y148114D02*
X194228Y157274D01*
X153817Y117940D02*
X163515Y127639D01*
X184529Y148653D02*
X193689Y157813D01*
X153278Y118479D02*
X162977Y128178D01*
X183452Y148653D02*
X193150Y158352D01*
X153278Y119557D02*
X162438Y128717D01*
X182913Y149192D02*
X192073Y158352D01*
X152739Y120096D02*
X162438Y129794D01*
X181835Y149192D02*
X191534Y158890D01*
X152200Y120634D02*
X161899Y130333D01*
X181296Y149731D02*
X190456Y158890D01*
X151662Y121173D02*
X161899Y131411D01*
X180219Y149731D02*
X189918Y159429D01*
X151662Y122251D02*
X161360Y131950D01*
X179680Y150269D02*
X189379Y159968D01*
X151662Y123329D02*
X161360Y133027D01*
X178602Y150269D02*
X188840Y160507D01*
X151123Y123867D02*
X161360Y134105D01*
X177525Y150269D02*
X187762Y160507D01*
X150584Y124406D02*
X161360Y135183D01*
X176447Y150269D02*
X186685Y160507D01*
X150584Y125484D02*
X161360Y136260D01*
X175369Y150269D02*
X186146Y161046D01*
X150584Y126561D02*
X161360Y137338D01*
X173753Y149731D02*
X185607Y161584D01*
X150045Y127100D02*
X161899Y138954D01*
X173214Y150269D02*
X183990Y161046D01*
X150045Y128178D02*
X162438Y140571D01*
X171059Y149192D02*
X183452Y161584D01*
X150045Y129256D02*
X163515Y142726D01*
X168365Y147575D02*
X182374Y161584D01*
X150045Y130333D02*
X181296Y161584D01*
X149506Y130872D02*
X180758Y162123D01*
X149506Y131950D02*
X179680Y162123D01*
X149506Y133027D02*
X178602Y162123D01*
X149506Y134105D02*
X177525Y162123D01*
X150045Y135721D02*
X175908Y161584D01*
X150045Y136799D02*
X174831Y161584D01*
X150045Y137877D02*
X173214Y161046D01*
X200155Y133027D02*
X209315Y142187D01*
X199616Y133566D02*
X208776Y142726D01*
X199077Y134105D02*
X208776Y143804D01*
X199077Y135183D02*
X208237Y144342D01*
X198538Y135721D02*
X207698Y144881D01*
X198000Y136260D02*
X207160Y145420D01*
X198000Y137338D02*
X206621Y145959D01*
X197461Y137877D02*
X206621Y147037D01*
X196922Y138415D02*
X206082Y147575D01*
X196383Y138954D02*
X205543Y148114D01*
X163515Y107164D02*
X195306Y138954D01*
X195844Y139493D02*
X205004Y148653D01*
X162977Y107703D02*
X194767Y139493D01*
X195306Y140032D02*
X204466Y149192D01*
X162438Y108242D02*
X188301Y134105D01*
X189379Y135183D02*
X203927Y149731D01*
X161899Y108781D02*
X186685Y133566D01*
X189918Y136799D02*
X203388Y150269D01*
X161360Y109319D02*
X185607Y133566D01*
X189918Y137877D02*
X202849Y150808D01*
X160821Y109858D02*
X185068Y134105D01*
X189379Y138415D02*
X202310Y151347D01*
X160283Y110397D02*
X184529Y134644D01*
X188840Y138954D02*
X201771Y151886D01*
X159744Y110936D02*
X183990Y135183D01*
X192612Y143804D02*
X201233Y152425D01*
X159205Y111475D02*
X183452Y135721D01*
X187762Y140032D02*
X200694Y152963D01*
X158666Y112014D02*
X183452Y136799D01*
X186685Y140032D02*
X200155Y153502D01*
X158127Y112552D02*
X184529Y138954D01*
X185068Y139493D02*
X199616Y154041D01*
X157589Y113091D02*
X189379Y144881D01*
X189918Y145420D02*
X199077Y154580D01*
X157050Y113630D02*
X188840Y145420D01*
X189379Y145959D02*
X198000Y154580D01*
X156511Y114169D02*
X165671Y123329D01*
X188301Y145959D02*
X197461Y155119D01*
X155972Y114707D02*
X165132Y123867D01*
X187762Y146498D02*
X196922Y155658D01*
X195306Y99082D02*
X210931Y114707D01*
X227096Y130872D02*
X238411Y142187D01*
X193150Y98004D02*
X212009Y116863D01*
X191534Y97465D02*
X212548Y118479D01*
X189918Y96927D02*
X213086Y120096D01*
X188840Y96927D02*
X213086Y121173D01*
X187223Y96388D02*
X213625Y122790D01*
X186146Y96388D02*
X213625Y123867D01*
X184529Y95849D02*
X214164Y125484D01*
X183452Y95849D02*
X214164Y126561D01*
X182913Y96388D02*
X214164Y127639D01*
X181835Y96388D02*
X214164Y128717D01*
X180758Y96388D02*
X213625Y129256D01*
X180219Y96927D02*
X192612Y109319D01*
X200694Y117402D02*
X213625Y130333D01*
X178602Y96388D02*
X190995Y108781D01*
X201233Y119018D02*
X213625Y131411D01*
X178064Y96927D02*
X188840Y107703D01*
X201771Y120634D02*
X213086Y131950D01*
X177525Y97465D02*
X187762Y107703D01*
X202310Y122251D02*
X213625Y133566D01*
X176447Y97465D02*
X186685Y107703D01*
X202310Y123329D02*
X213086Y134105D01*
X175369Y97465D02*
X185607Y107703D01*
X202310Y124406D02*
X212548Y134644D01*
X174831Y98004D02*
X184529Y107703D01*
X202310Y125484D02*
X212548Y135721D01*
X174292Y98543D02*
X183990Y108242D01*
X202310Y126561D02*
X212548Y136799D01*
X173753Y99082D02*
X182913Y108242D01*
X202310Y127639D02*
X212009Y137338D01*
X173214Y99621D02*
X182374Y108781D01*
X201771Y128178D02*
X211470Y137877D01*
X172136Y99621D02*
X181296Y108781D01*
X201771Y129256D02*
X211470Y138954D01*
X171598Y100160D02*
X180758Y109319D01*
X201233Y129794D02*
X210931Y139493D01*
X171059Y100698D02*
X180219Y109858D01*
X200694Y130333D02*
X210931Y140571D01*
X170520Y101237D02*
X179141Y109858D01*
X200694Y131411D02*
X210392Y141110D01*
X220091Y210078D02*
X239489Y229475D01*
X219552Y210617D02*
X239489Y230553D01*
X219552Y211694D02*
X238950Y231092D01*
X219014Y212233D02*
X238950Y232169D01*
X218475Y212772D02*
X238950Y233247D01*
X218475Y213850D02*
X238950Y234325D01*
X218475Y214927D02*
X238950Y235402D01*
X217936Y215466D02*
X238950Y236480D01*
X217397Y216005D02*
X238950Y237557D01*
X217397Y217083D02*
X238950Y238635D01*
X217397Y218160D02*
X238950Y239713D01*
X216858Y218699D02*
X238950Y240790D01*
X216858Y219776D02*
X238950Y241868D01*
X216858Y220854D02*
X238950Y242946D01*
X216319Y221393D02*
X238950Y244023D01*
X216319Y222471D02*
X238950Y245101D01*
X215781Y223009D02*
X239489Y246717D01*
X215781Y224087D02*
X240027Y248334D01*
X215242Y224626D02*
X240027Y249411D01*
X215781Y226242D02*
X240027Y250489D01*
X215242Y226781D02*
X241105Y252644D01*
X215242Y227859D02*
X241105Y253722D01*
X230867Y191758D02*
X248109Y209000D01*
X230329Y192297D02*
X247571Y209539D01*
X229790Y192836D02*
X247032Y210078D01*
X229251Y193375D02*
X246493Y210617D01*
X228712Y193913D02*
X246493Y211694D01*
X228173Y194452D02*
X245954Y212233D01*
X227635Y194991D02*
X245954Y213311D01*
X227096Y195530D02*
X245415Y213850D01*
X227096Y196607D02*
X244877Y214388D01*
X226557Y197146D02*
X244338Y214927D01*
X226018Y197685D02*
X244338Y216005D01*
X226018Y198763D02*
X243799Y216544D01*
X225479Y199302D02*
X243260Y217083D01*
X224940Y199840D02*
X243260Y218160D01*
X224402Y200379D02*
X242721Y218699D01*
X223863Y200918D02*
X242183Y219238D01*
X223863Y201996D02*
X242183Y220315D01*
X223324Y202534D02*
X242183Y221393D01*
X222785Y203073D02*
X241644Y221932D01*
X222785Y204151D02*
X241105Y222471D01*
X222246Y204690D02*
X241105Y223548D01*
X221708Y205229D02*
X240566Y224087D01*
X221708Y206306D02*
X240566Y225165D01*
X221169Y206845D02*
X240027Y225704D01*
X221169Y207923D02*
X240027Y226781D01*
X220630Y208461D02*
X240027Y227859D01*
X244877Y177749D02*
X262119Y194991D01*
X244338Y178288D02*
X261580Y195530D01*
X243799Y178827D02*
X261041Y196069D01*
X243260Y179365D02*
X260502Y196607D01*
X242183Y179365D02*
X259963Y197146D01*
X241644Y179904D02*
X259425Y197685D01*
X241105Y180443D02*
X258886Y198224D01*
X240566Y180982D02*
X257808Y198224D01*
X240027Y181521D02*
X257269Y198763D01*
X239489Y182059D02*
X256731Y199302D01*
X238950Y182598D02*
X256192Y199840D01*
X238411Y183137D02*
X255653Y200379D01*
X237872Y183676D02*
X255114Y200918D01*
X237333Y184215D02*
X254575Y201457D01*
X236794Y184754D02*
X254037Y201996D01*
X236256Y185292D02*
X253498Y202534D01*
X235717Y185831D02*
X252959Y203073D01*
X235178Y186370D02*
X252420Y203612D01*
X234639Y186909D02*
X251881Y204151D01*
X234100Y187448D02*
X251342Y204690D01*
X233561Y187986D02*
X250804Y205229D01*
X233023Y188525D02*
X250265Y205767D01*
X232484Y189064D02*
X250265Y206845D01*
X231945Y189603D02*
X249726Y207384D01*
X231406Y190142D02*
X249187Y207923D01*
X263735Y167512D02*
X283671Y187448D01*
X262658Y167512D02*
X282594Y187448D01*
X262119Y168050D02*
X281516Y187448D01*
X261041Y168050D02*
X280977Y187986D01*
X260502Y168589D02*
X279900Y187986D01*
X259963Y169128D02*
X278822Y187986D01*
X258886Y169128D02*
X278283Y188525D01*
X258347Y169667D02*
X277206Y188525D01*
X257269Y169667D02*
X276667Y189064D01*
X256731Y170205D02*
X275589Y189064D01*
X256192Y170744D02*
X274512Y189064D01*
X255653Y171283D02*
X273973Y189603D01*
X254575Y171283D02*
X273434Y190142D01*
X254037Y171822D02*
X272356Y190142D01*
X252959Y171822D02*
X271817Y190681D01*
X252420Y172361D02*
X270740Y190681D01*
X251881Y172900D02*
X270201Y191219D01*
X251342Y173438D02*
X269662Y191758D01*
X250804Y173977D02*
X268584Y191758D01*
X249726Y173977D02*
X268046Y192297D01*
X249187Y174516D02*
X266968Y192297D01*
X248648Y175055D02*
X266429Y192836D01*
X248109Y175594D02*
X265890Y193375D01*
X247032Y175594D02*
X265352Y193913D01*
X246493Y176133D02*
X264274Y193913D01*
X245954Y176671D02*
X263735Y194452D01*
X279900Y163201D02*
X306302Y189603D01*
X278822Y163201D02*
X304685Y189064D01*
X278283Y163740D02*
X303069Y188525D01*
X277206Y163740D02*
X301991Y188525D01*
X276128Y163740D02*
X300375Y187986D01*
X275589Y164279D02*
X298758Y187448D01*
X274512Y164279D02*
X297680Y187448D01*
X273434Y164279D02*
X296603Y187448D01*
X272895Y164817D02*
X294986Y186909D01*
X271817Y164817D02*
X293909Y186909D01*
X270740Y164817D02*
X292831Y186909D01*
X270201Y165356D02*
X291754Y186909D01*
X269123Y165356D02*
X290676Y186909D01*
X268584Y165895D02*
X289598Y186909D01*
X267507Y165895D02*
X288521Y186909D01*
X266968Y166434D02*
X287443Y186909D01*
X265890Y166434D02*
X286365Y186909D01*
X265352Y166973D02*
X285288Y186909D01*
X224402Y275813D02*
X252959Y304371D01*
X226018Y278507D02*
X250265Y302754D01*
X228173Y281740D02*
X247032Y300599D01*
X228712Y283357D02*
X245415Y300060D01*
X262119Y281201D02*
X294986Y314069D01*
X258886Y279046D02*
X293909Y314069D01*
X255114Y245101D02*
X283132Y273119D01*
X255114Y246178D02*
X281516Y272581D01*
X255653Y247795D02*
X279900Y272042D01*
X256731Y249950D02*
X278283Y271503D01*
X258347Y252644D02*
X275589Y269886D01*
X267507Y284434D02*
X296603Y313530D01*
Y257494D02*
X306302Y267192D01*
X296064Y258032D02*
X305763Y267731D01*
X295525Y258571D02*
X304685Y267731D01*
X294986Y259110D02*
X304146Y268270D01*
X294448Y259649D02*
X303608Y268809D01*
X293370Y259649D02*
X302530Y268809D01*
X292292Y259649D02*
X301991Y269347D01*
X291754Y260188D02*
X301452Y269886D01*
X291215Y260727D02*
X300913Y270425D01*
X290137Y260727D02*
X300375Y270964D01*
X289060Y260727D02*
X299297Y270964D01*
X287982Y260727D02*
X298758Y271503D01*
X286904Y260727D02*
X297680Y271503D01*
X285288Y260188D02*
X297142Y272042D01*
X284210Y260188D02*
X296603Y272581D01*
X282055Y259110D02*
X295525Y272581D01*
X310612Y243484D02*
X319772Y252644D01*
X310073Y244023D02*
X319233Y253183D01*
X309534Y244562D02*
X319233Y254261D01*
X308996Y245101D02*
X318694Y254799D01*
X308996Y246178D02*
X318155Y255338D01*
X308457Y246717D02*
X317617Y255877D01*
X307918Y247256D02*
X317078Y256416D01*
X307379Y247795D02*
X316539Y256955D01*
X307379Y248873D02*
X316000Y257494D01*
X306302Y248873D02*
X315461Y258032D01*
X305763Y249411D02*
X314923Y258571D01*
X305224Y249950D02*
X314384Y259110D01*
X304685Y250489D02*
X313845Y259649D01*
X304146Y251028D02*
X313306Y260188D01*
X303608Y251567D02*
X312767Y260727D01*
X303069Y252106D02*
X312229Y261265D01*
X302530Y252644D02*
X311690Y261804D01*
X301991Y253183D02*
X311151Y262343D01*
X301452Y253722D02*
X310612Y262882D01*
X300913Y254261D02*
X310073Y263421D01*
X300375Y254799D02*
X309534Y263959D01*
X299836Y255338D02*
X308996Y264498D01*
X299836Y256416D02*
X308457Y265037D01*
X298758Y256416D02*
X307918Y265576D01*
X298219Y256955D02*
X307379Y266115D01*
X302530Y206306D02*
X321388Y225165D01*
X300375Y205229D02*
X323005Y227859D01*
X298219Y204151D02*
X323544Y229475D01*
X296603Y203612D02*
X324082Y231092D01*
X295525Y203612D02*
X324621Y232708D01*
X335398Y244562D02*
X344019Y253183D01*
X335398Y245640D02*
X344557Y254799D01*
X310612Y231630D02*
X324082Y245101D01*
X311151Y233247D02*
X323544Y245640D01*
X311690Y234863D02*
X323005Y246178D01*
X311690Y235941D02*
X323005Y247256D01*
X311690Y237019D02*
X322466Y247795D01*
X311690Y238096D02*
X322466Y248873D01*
X311690Y239174D02*
X321927Y249411D01*
X311690Y240252D02*
X321388Y249950D01*
X311151Y240790D02*
X320850Y250489D01*
X310612Y241329D02*
X320311Y251028D01*
X340247Y225704D02*
X357489Y242946D01*
X340247Y226781D02*
X355873Y242407D01*
X334320Y176671D02*
X352101Y194452D01*
X331626Y175055D02*
X353717Y197146D01*
X328393Y172900D02*
X355873Y200379D01*
X345096Y335083D02*
X352640Y342626D01*
X344557Y335622D02*
X351562Y342626D01*
X343480Y335622D02*
X351023Y343165D01*
X342941Y336161D02*
X349946Y343165D01*
X342402Y336699D02*
X349407Y343704D01*
X341863Y337238D02*
X348868Y344243D01*
X341325Y337777D02*
X348329Y344782D01*
X340786Y338316D02*
X347790Y345321D01*
X340247Y338855D02*
X347252Y345859D01*
X339708Y339394D02*
X346713Y346398D01*
X339169Y339932D02*
X346174Y346937D01*
X338630Y340471D02*
X346174Y348015D01*
X338092Y341010D02*
X345635Y348553D01*
X338092Y342088D02*
X345096Y349092D01*
X337553Y342626D02*
X345635Y350709D01*
X337014Y343165D02*
X345096Y351247D01*
X336475Y343704D02*
X345096Y352325D01*
X336475Y344782D02*
X345096Y353403D01*
X335936Y345321D02*
X345635Y355019D01*
X328932Y289823D02*
X349946Y310836D01*
X327854Y289823D02*
X349407Y311375D01*
X326777Y289823D02*
X348868Y311914D01*
X325699Y289823D02*
X347790Y311914D01*
X324621Y289823D02*
X346713Y311914D01*
X323544Y289823D02*
X345635Y311914D01*
X322466Y289823D02*
X344557Y311914D01*
X365032Y335622D02*
X370959Y341549D01*
X362338Y334005D02*
X372576Y344243D01*
X361261Y334005D02*
X373115Y345859D01*
X359105Y332928D02*
X373653Y347476D01*
X358028Y332928D02*
X374192Y349092D01*
X356950Y332928D02*
X374192Y350170D01*
X355873Y332928D02*
X374192Y351247D01*
X348868Y333467D02*
X359105Y343704D01*
X347790Y333467D02*
X356950Y342626D01*
X347252Y334005D02*
X355873Y342626D01*
X346174Y334005D02*
X354256Y342088D01*
X360722Y293594D02*
X379580Y312453D01*
X360722Y294672D02*
X378503Y312453D01*
X360722Y295749D02*
X377425Y312453D01*
X360722Y296827D02*
X376348Y312453D01*
X361261Y298444D02*
X375270Y312453D01*
X361261Y299521D02*
X374192Y312453D01*
X361261Y300599D02*
X373115Y312453D01*
X361261Y301677D02*
X372037Y312453D01*
X361261Y302754D02*
X370959Y312453D01*
X336475Y289823D02*
X349946Y303293D01*
X335398Y289823D02*
X349946Y304371D01*
X334320Y289823D02*
X349946Y305448D01*
X333242Y289823D02*
X349946Y306526D01*
X332165Y289823D02*
X349946Y307603D01*
X331087Y289823D02*
X349946Y308681D01*
X356411Y260188D02*
X363955Y267731D01*
X386585Y290361D02*
X410293Y314069D01*
X355334Y260188D02*
X363416Y268270D01*
X385507Y290361D02*
X408676Y313530D01*
X354795Y260727D02*
X362877Y268809D01*
X384430Y290361D02*
X407599Y313530D01*
X353717Y260727D02*
X362338Y269347D01*
X383352Y290361D02*
X406521Y313530D01*
X352640Y260727D02*
X361800Y269886D01*
X382275Y290361D02*
X405444Y313530D01*
X381197Y290361D02*
X404366Y313530D01*
X380119Y290361D02*
X403288Y313530D01*
X379042Y290361D02*
X402211Y313530D01*
X377964Y290361D02*
X401133Y313530D01*
X376886Y290361D02*
X400055Y313530D01*
X375809Y290361D02*
X398978Y313530D01*
X374731Y290361D02*
X397900Y313530D01*
X373653Y290361D02*
X396823Y313530D01*
X372576Y290361D02*
X395745Y313530D01*
X371498Y290361D02*
X394667Y313530D01*
X370421Y290361D02*
X393590Y313530D01*
X369343Y290361D02*
X392512Y313530D01*
X368265Y290361D02*
X390896Y312992D01*
X367188Y290361D02*
X389818Y312992D01*
X366110Y290361D02*
X388740Y312992D01*
X365032Y290361D02*
X387663Y312992D01*
X363955Y290361D02*
X386585Y312992D01*
X362877Y290361D02*
X385507Y312992D01*
X361261Y289823D02*
X384430Y312992D01*
X360722Y290361D02*
X383352Y312992D01*
X360183Y290900D02*
X382275Y312992D01*
X362338Y249950D02*
X372037Y259649D01*
X362877Y251567D02*
X371498Y260188D01*
X362338Y252106D02*
X370959Y260727D01*
X362338Y253183D02*
X370421Y261265D01*
X362338Y254261D02*
X370421Y262343D01*
X361800Y254799D02*
X369882Y262882D01*
X361261Y255338D02*
X369343Y263421D01*
X361261Y256416D02*
X368804Y263959D01*
X360722Y256955D02*
X368265Y264498D01*
X360183Y257494D02*
X367727Y265037D01*
X359644Y258032D02*
X367188Y265576D01*
X359105Y258571D02*
X366649Y266115D01*
X358567Y259110D02*
X366110Y266653D01*
X358028Y259649D02*
X365571Y267192D01*
X347252Y394353D02*
X388740Y435841D01*
X348329Y396508D02*
X386585Y434764D01*
X349407Y398663D02*
X384969Y434225D01*
X350484Y400818D02*
X382275Y432609D01*
X351562Y402974D02*
X380119Y431531D01*
X353178Y405668D02*
X377425Y429915D01*
X355334Y408901D02*
X374192Y427759D01*
X355873Y410517D02*
X372576Y427220D01*
X344019Y383576D02*
X399517Y439074D01*
X344019Y384654D02*
X398439Y439074D01*
X344557Y386270D02*
X396823Y438536D01*
X345096Y387887D02*
X395206Y437997D01*
X345635Y389503D02*
X393590Y437458D01*
X346174Y391120D02*
X391973Y436919D01*
X450704Y297366D02*
X485727Y332389D01*
X449088Y296827D02*
X486266Y334005D01*
X446932Y295749D02*
X487343Y336161D01*
X445316Y295211D02*
X487882Y337777D01*
X443699Y294672D02*
X488421Y339394D01*
X442083Y294133D02*
X488960Y341010D01*
X440467Y293594D02*
X489499Y342626D01*
X438850Y293055D02*
X490038Y344243D01*
X437234Y292517D02*
X490576Y345859D01*
X436156Y292517D02*
X491115Y347476D01*
X461480Y303832D02*
X479261Y321613D01*
X458786Y302215D02*
X480878Y324307D01*
X455553Y300060D02*
X483033Y327540D01*
X426457Y416444D02*
X445855Y435841D01*
X446932Y407823D02*
X464713Y425604D01*
X446394Y408362D02*
X464174Y426143D01*
X445316Y408362D02*
X463097Y426143D01*
X444777Y408901D02*
X462558Y426682D01*
X444238Y409440D02*
X462019Y427220D01*
X443699Y409978D02*
X461480Y427759D01*
X442622Y409978D02*
X460403Y427759D01*
X442083Y410517D02*
X459864Y428298D01*
X441544Y411056D02*
X459325Y428837D01*
X441005Y411595D02*
X458786Y429376D01*
X439928Y411595D02*
X457709Y429376D01*
X439389Y412134D02*
X457170Y429915D01*
X438311Y412134D02*
X456631Y430453D01*
X437772Y412673D02*
X456092Y430992D01*
X437234Y413211D02*
X455553Y431531D01*
X436156Y413211D02*
X454476Y431531D01*
X435617Y413750D02*
X453937Y432070D01*
X435079Y414289D02*
X452859Y432070D01*
X434001Y414289D02*
X452321Y432609D01*
X432923Y414289D02*
X451782Y433147D01*
X432384Y414828D02*
X451243Y433686D01*
X431307Y414828D02*
X450704Y434225D01*
X430768Y415367D02*
X449627Y434225D01*
X429690Y415367D02*
X448549Y434225D01*
X429151Y415905D02*
X448010Y434764D01*
X428074Y415905D02*
X447471Y435303D01*
X460403Y393275D02*
X478184Y411056D01*
X460403Y394353D02*
X478184Y412134D01*
X459864Y394892D02*
X477645Y412673D01*
X459325Y395430D02*
X477106Y413211D01*
X458786Y395969D02*
X476567Y413750D01*
X458247Y396508D02*
X476028Y414289D01*
X457709Y397047D02*
X475490Y414828D01*
X457170Y397586D02*
X474951Y415367D01*
X456631Y398124D02*
X474412Y415905D01*
X456092Y398663D02*
X473873Y416444D01*
X456092Y399741D02*
X473334Y416983D01*
X455553Y400280D02*
X472795Y417522D01*
X455015Y400818D02*
X472257Y418061D01*
X454476Y401357D02*
X471718Y418599D01*
X453937Y401896D02*
X471179Y419138D01*
X453398Y402435D02*
X470640Y419677D01*
X452859Y402974D02*
X470101Y420216D01*
X452321Y403513D02*
X469563Y420755D01*
X451782Y404051D02*
X469024Y421293D01*
X450704Y404051D02*
X468485Y421832D01*
X450165Y404590D02*
X467946Y422371D01*
X449627Y405129D02*
X467407Y422910D01*
X449088Y405668D02*
X466869Y423449D01*
X448549Y406207D02*
X466330Y423988D01*
X448010Y406745D02*
X465791Y424526D01*
X468485Y374417D02*
X487882Y393814D01*
X467946Y374955D02*
X487882Y394892D01*
X467946Y376033D02*
X487343Y395430D01*
X467407Y376572D02*
X486805Y395969D01*
X467407Y377649D02*
X486266Y396508D01*
X466869Y378188D02*
X486266Y397586D01*
X466869Y379266D02*
X485727Y398124D01*
X466869Y380344D02*
X485727Y399202D01*
X466330Y380882D02*
X485188Y399741D01*
X466330Y381960D02*
X484649Y400280D01*
X466330Y383038D02*
X484649Y401357D01*
X465791Y383576D02*
X484111Y401896D01*
X465252Y384115D02*
X483572Y402435D01*
X465252Y385193D02*
X483572Y403513D01*
X464713Y385732D02*
X483033Y404051D01*
X464713Y386809D02*
X482494Y404590D01*
X464174Y387348D02*
X481955Y405129D01*
X463636Y387887D02*
X481417Y405668D01*
X463097Y388426D02*
X481417Y406745D01*
X463097Y389503D02*
X480878Y407284D01*
X462558Y390042D02*
X480339Y407823D01*
X462019Y390581D02*
X479800Y408362D01*
X461480Y391120D02*
X479800Y409440D01*
X461480Y392197D02*
X479261Y409978D01*
X178064Y137877D02*
X185607Y145420D01*
X221708Y153502D02*
X230329Y162123D01*
X207698Y167512D02*
X216319Y176133D01*
X275589Y207384D02*
X285288Y217083D01*
X337553Y240252D02*
X344557Y247256D01*
X363416Y352325D02*
X372037Y360946D01*
X420530Y352325D02*
X429151Y360946D01*
X406521Y366334D02*
X415142Y374955D01*
X391973Y380882D02*
X400594Y389503D01*
X435617Y338316D02*
X443161Y345859D01*
X122565Y101776D02*
X136036Y115246D01*
X154895Y71602D02*
X167287Y83995D01*
X178064Y138954D02*
X184529Y145420D01*
X179141Y141110D02*
X182374Y144342D01*
X190995Y129256D02*
X194767Y133027D01*
X188840Y128178D02*
X195306Y134644D01*
X187762Y128178D02*
X195844Y136260D01*
X186685Y128178D02*
X195306Y136799D01*
X185607Y128178D02*
X195844Y138415D01*
X188301Y139493D02*
X192073Y143265D01*
X178064Y135721D02*
X187762Y145420D01*
X178064Y136799D02*
X186685Y145420D01*
X220630Y137338D02*
X222246Y138954D01*
X191534Y183676D02*
X200155Y192297D01*
X190995Y184215D02*
X199616Y192836D01*
X190456Y184754D02*
X199077Y193375D01*
X189918Y185292D02*
X198538Y193913D01*
X189379Y185831D02*
X198000Y194452D01*
X188840Y186370D02*
X197461Y194991D01*
X188301Y186909D02*
X196922Y195530D01*
X187762Y187448D02*
X196383Y196069D01*
X187223Y187986D02*
X195844Y196607D01*
X186685Y188525D02*
X195306Y197146D01*
X186146Y189064D02*
X194767Y197685D01*
X185607Y189603D02*
X194228Y198224D01*
X185068Y190142D02*
X193689Y198763D01*
X184529Y190681D02*
X193150Y199302D01*
X183990Y191219D02*
X192612Y199840D01*
X183452Y191758D02*
X192073Y200379D01*
X182913Y192297D02*
X191534Y200918D01*
X182374Y192836D02*
X190995Y201457D01*
X181835Y193375D02*
X190456Y201996D01*
X181296Y193913D02*
X189918Y202534D01*
X207160Y168050D02*
X215781Y176671D01*
X206621Y168589D02*
X215242Y177210D01*
X206082Y169128D02*
X214703Y177749D01*
X205543Y169667D02*
X214164Y178288D01*
X205004Y170205D02*
X213625Y178827D01*
X204466Y170744D02*
X213086Y179365D01*
X203927Y171283D02*
X212548Y179904D01*
X203388Y171822D02*
X212009Y180443D01*
X202849Y172361D02*
X211470Y180982D01*
X202310Y172900D02*
X210931Y181521D01*
X201771Y173438D02*
X210392Y182059D01*
X201233Y173977D02*
X209854Y182598D01*
X200694Y174516D02*
X209315Y183137D01*
X200155Y175055D02*
X208776Y183676D01*
X199616Y175594D02*
X208237Y184215D01*
X199077Y176133D02*
X207698Y184754D01*
X221169Y154041D02*
X229790Y162662D01*
X220630Y154580D02*
X229251Y163201D01*
X220091Y155119D02*
X228712Y163740D01*
X219552Y155658D02*
X228173Y164279D01*
X219014Y156196D02*
X227635Y164817D01*
X218475Y156735D02*
X227096Y165356D01*
X217936Y157274D02*
X226557Y165895D01*
X217397Y157813D02*
X226018Y166434D01*
X216858Y158352D02*
X225479Y166973D01*
X216319Y158890D02*
X224940Y167512D01*
X215781Y159429D02*
X224402Y168050D01*
X215242Y159968D02*
X223863Y168589D01*
X214703Y160507D02*
X223324Y169128D01*
X214164Y161046D02*
X222785Y169667D01*
X213625Y161584D02*
X222246Y170205D01*
X213086Y162123D02*
X221708Y170744D01*
X212548Y162662D02*
X221169Y171283D01*
X212009Y163201D02*
X220630Y171822D01*
X211470Y163740D02*
X220091Y172361D01*
X210931Y164279D02*
X219552Y172900D01*
X210392Y164817D02*
X219014Y173438D01*
X209854Y165356D02*
X218475Y173977D01*
X209315Y165895D02*
X217936Y174516D01*
X208776Y166434D02*
X217397Y175055D01*
X208237Y166973D02*
X216858Y175594D01*
X226557Y143265D02*
X237333Y154041D01*
X227096Y144881D02*
X236794Y154580D01*
X227096Y145959D02*
X236256Y155119D01*
X226557Y146498D02*
X235717Y155658D01*
X226557Y147575D02*
X235178Y156196D01*
X226018Y148114D02*
X234639Y156735D01*
X225479Y148653D02*
X234100Y157274D01*
X224940Y149192D02*
X233561Y157813D01*
X224940Y150269D02*
X233023Y158352D01*
X224402Y150808D02*
X233023Y159429D01*
X223863Y151347D02*
X232484Y159968D01*
X223324Y151886D02*
X231945Y160507D01*
X222785Y152425D02*
X231406Y161046D01*
X222246Y152963D02*
X230867Y161584D01*
X261041Y221932D02*
X270201Y231092D01*
X260502Y222471D02*
X269662Y231630D01*
X259963Y223009D02*
X269123Y232169D01*
X259425Y223548D02*
X268584Y232708D01*
X258886Y224087D02*
X268584Y233786D01*
X258347Y224626D02*
X268046Y234325D01*
X257808Y225165D02*
X267507Y234863D01*
X257808Y226242D02*
X267507Y235941D01*
X257269Y226781D02*
X267507Y237019D01*
X257269Y227859D02*
X266968Y237557D01*
X256731Y228398D02*
X266968Y238635D01*
X256192Y228936D02*
X266968Y239713D01*
X255653Y229475D02*
X267507Y241329D01*
X255653Y230553D02*
X266968Y241868D01*
X275050Y207923D02*
X284749Y217621D01*
X274512Y208461D02*
X283671Y217621D01*
X273973Y209000D02*
X283132Y218160D01*
X273434Y209539D02*
X282594Y218699D01*
X272895Y210078D02*
X282055Y219238D01*
X280977Y204151D02*
X292831Y216005D01*
X280438Y204690D02*
X291754Y216005D01*
X279900Y205229D02*
X290676Y216005D01*
X279361Y205767D02*
X289598Y216005D01*
X278283Y205767D02*
X289060Y216544D01*
X277744Y206306D02*
X287443Y216005D01*
X276667Y206306D02*
X286904Y216544D01*
X276128Y206845D02*
X285827Y216544D01*
X340786Y182059D02*
X346713Y187986D01*
X337014Y240790D02*
X344557Y248334D01*
X337014Y241868D02*
X344019Y248873D01*
X336475Y242407D02*
X344019Y249950D01*
X335936Y242946D02*
X344019Y251028D01*
X335398Y243484D02*
X344019Y252106D01*
X340786Y228398D02*
X354256Y241868D01*
X340786Y229475D02*
X353178Y241868D01*
X341325Y231092D02*
X352101Y241868D01*
X341325Y232169D02*
X351562Y242407D01*
X341325Y233247D02*
X350484Y242407D01*
X341863Y234863D02*
X349946Y242946D01*
X341863Y235941D02*
X348868Y242946D01*
X341325Y236480D02*
X348329Y243484D01*
X340786Y237019D02*
X347790Y244023D01*
X340247Y237557D02*
X347252Y244562D01*
X339708Y238096D02*
X346713Y245101D01*
X339169Y238635D02*
X346174Y245640D01*
X338630Y239174D02*
X345635Y246178D01*
X338092Y239713D02*
X345096Y246717D01*
X338630Y263959D02*
X341325Y266653D01*
X348329Y289823D02*
X349407Y290900D01*
X347252Y289823D02*
X349407Y291978D01*
X346174Y289823D02*
X349407Y293055D01*
X345096Y289823D02*
X349407Y294133D01*
X344019Y289823D02*
X349407Y295211D01*
X342941Y289823D02*
X349407Y296288D01*
X341863Y289823D02*
X349407Y297366D01*
X340786Y289823D02*
X349407Y298444D01*
X339708Y289823D02*
X349407Y299521D01*
X338630Y289823D02*
X349946Y301138D01*
X337553Y289823D02*
X349946Y302215D01*
X361261Y303832D02*
X369882Y312453D01*
X361261Y304909D02*
X368804Y312453D01*
X361261Y305987D02*
X367727Y312453D01*
X361261Y307065D02*
X366649Y312453D01*
X361261Y308142D02*
X365571Y312453D01*
X361261Y309220D02*
X364494Y312453D01*
X361261Y310298D02*
X363416Y312453D01*
Y353403D02*
X372037Y362024D01*
X363416Y354480D02*
X371498Y362563D01*
X362877Y355019D02*
X370959Y363101D01*
X362338Y355558D02*
X370421Y363640D01*
X361800Y356097D02*
X369882Y364179D01*
X361800Y357174D02*
X369343Y364718D01*
X361261Y357713D02*
X368804Y365257D01*
X360722Y358252D02*
X368265Y365796D01*
X360183Y358791D02*
X367727Y366334D01*
X359644Y359330D02*
X367188Y366873D01*
X358567Y359330D02*
X366649Y367412D01*
X358028Y359869D02*
X366110Y367951D01*
X357489Y360407D02*
X366110Y369028D01*
X356411Y360407D02*
X366110Y370106D01*
X355873Y360946D02*
X366649Y371722D01*
X354795Y360946D02*
X366649Y372800D01*
X363416Y350170D02*
X372576Y359330D01*
X363416Y351247D02*
X372576Y360407D01*
X391434Y381421D02*
X400055Y390042D01*
X390896Y381960D02*
X399517Y390581D01*
X390357Y382499D02*
X398978Y391120D01*
X389818Y383038D02*
X398439Y391659D01*
X389279Y383576D02*
X397900Y392197D01*
X389279Y384654D02*
X397361Y392736D01*
X389279Y385732D02*
X396284Y392736D01*
X405982Y366873D02*
X414604Y375494D01*
X405444Y367412D02*
X414065Y376033D01*
X404905Y367951D02*
X413526Y376572D01*
X404366Y368490D02*
X412987Y377111D01*
X403827Y369028D02*
X412448Y377649D01*
X403288Y369567D02*
X411909Y378188D01*
X402749Y370106D02*
X411371Y378727D01*
X402211Y370645D02*
X410832Y379266D01*
X401672Y371184D02*
X410293Y379805D01*
X401133Y371722D02*
X409754Y380344D01*
X400594Y372261D02*
X409215Y380882D01*
X400594Y373339D02*
X408138Y380882D01*
X395206Y378727D02*
X402749Y386270D01*
X394128Y378727D02*
X402749Y387348D01*
X393590Y379266D02*
X402211Y387887D01*
X393051Y379805D02*
X401672Y388426D01*
X392512Y380344D02*
X401133Y388965D01*
X419992Y352864D02*
X428613Y361485D01*
X419453Y353403D02*
X428074Y362024D01*
X418914Y353942D02*
X427535Y362563D01*
X418375Y354480D02*
X426996Y363101D01*
X417836Y355019D02*
X426457Y363640D01*
X417298Y355558D02*
X425919Y364179D01*
X416759Y356097D02*
X425380Y364718D01*
X416220Y356636D02*
X424841Y365257D01*
X415681Y357174D02*
X424302Y365796D01*
X415142Y357713D02*
X423763Y366334D01*
X414604Y358252D02*
X423224Y366873D01*
X414065Y358791D02*
X422686Y367412D01*
X413526Y359330D02*
X422147Y367951D01*
X412987Y359869D02*
X421608Y368490D01*
X412448Y360407D02*
X421069Y369028D01*
X411909Y360946D02*
X420530Y369567D01*
X411371Y361485D02*
X419992Y370106D01*
X410832Y362024D02*
X419453Y370645D01*
X410293Y362563D02*
X418914Y371184D01*
X409754Y363101D02*
X418375Y371722D01*
X409215Y363640D02*
X417836Y372261D01*
X408676Y364179D02*
X417298Y372800D01*
X408138Y364718D02*
X416759Y373339D01*
X407599Y365257D02*
X416220Y373878D01*
X407060Y365796D02*
X415681Y374417D01*
X434540Y338316D02*
X443161Y346937D01*
X434001Y338855D02*
X442622Y347476D01*
X433462Y339394D02*
X442083Y348015D01*
X432923Y339932D02*
X441544Y348553D01*
X432384Y340471D02*
X441005Y349092D01*
X431846Y341010D02*
X440467Y349631D01*
X431307Y341549D02*
X439928Y350170D01*
X430768Y342088D02*
X439389Y350709D01*
X430229Y342626D02*
X438850Y351247D01*
X429690Y343165D02*
X438311Y351786D01*
X429151Y343704D02*
X437772Y352325D01*
X428613Y344243D02*
X437234Y352864D01*
X428074Y344782D02*
X436695Y353403D01*
X427535Y345321D02*
X436156Y353942D01*
X426996Y345859D02*
X435617Y354480D01*
X426457Y346398D02*
X435079Y355019D01*
X425919Y346937D02*
X434540Y355558D01*
X425380Y347476D02*
X434001Y356097D01*
X424841Y348015D02*
X433462Y356636D01*
X424302Y348553D02*
X432923Y357174D01*
X423763Y349092D02*
X432384Y357713D01*
X423224Y349631D02*
X431846Y358252D01*
X422686Y350170D02*
X431307Y358791D01*
X422147Y350709D02*
X430768Y359330D01*
X421608Y351247D02*
X430229Y359869D01*
X421069Y351786D02*
X429690Y360407D01*
X467946Y309220D02*
X473873Y315147D01*
D61*
X369881Y448310D02*
Y473702D01*
X361417Y465238D01*
X352953Y473702D01*
Y448310D01*
X327562Y473702D02*
X344490D01*
Y461006D01*
X336026Y465238D01*
X331794D01*
X327562Y461006D01*
Y452542D01*
X331794Y448310D01*
X340257D01*
X344490Y452542D01*
X319098Y461006D02*
X302170D01*
X293706Y448310D02*
Y473702D01*
X281010D01*
X276778Y469470D01*
Y461006D01*
X281010Y456774D01*
X293706D01*
X285242D02*
X276778Y448310D01*
X268314Y473702D02*
X251386D01*
X259850D01*
Y448310D01*
X225994Y469470D02*
X230226Y473702D01*
X238690D01*
X242922Y469470D01*
Y452542D01*
X238690Y448310D01*
X230226D01*
X225994Y452542D01*
X217530Y461006D02*
X200603D01*
X192139Y448310D02*
Y473702D01*
X183675Y465238D01*
X175211Y473702D01*
Y448310D01*
X162515D02*
X154051D01*
X149819Y452542D01*
Y461006D01*
X154051Y465238D01*
X162515D01*
X166747Y461006D01*
Y452542D01*
X162515Y448310D01*
X124427Y473702D02*
Y448310D01*
X137123D01*
X141355Y452542D01*
Y461006D01*
X137123Y465238D01*
X124427D01*
M02*
