G04*
G04 #@! TF.GenerationSoftware,Altium Limited,Altium Designer,19.1.9 (167)*
G04*
G04 Layer_Color=8388736*
%FSLAX44Y44*%
%MOMM*%
G71*
G01*
G75*
%ADD30C,18.0032*%
%ADD31R,2.7032X5.3032*%
G04:AMPARAMS|DCode=32|XSize=1.0032mm|YSize=1.1032mm|CornerRadius=0.3016mm|HoleSize=0mm|Usage=FLASHONLY|Rotation=90.000|XOffset=0mm|YOffset=0mm|HoleType=Round|Shape=RoundedRectangle|*
%AMROUNDEDRECTD32*
21,1,1.0032,0.5000,0,0,90.0*
21,1,0.4000,1.1032,0,0,90.0*
1,1,0.6032,0.2500,0.2000*
1,1,0.6032,0.2500,-0.2000*
1,1,0.6032,-0.2500,-0.2000*
1,1,0.6032,-0.2500,0.2000*
%
%ADD32ROUNDEDRECTD32*%
%ADD33R,1.1032X1.0032*%
%ADD34R,2.8032X1.9032*%
%ADD35R,1.2032X1.1032*%
%ADD36R,0.8032X1.7032*%
%ADD37O,0.8032X1.7032*%
G04:AMPARAMS|DCode=38|XSize=0.7532mm|YSize=1.2032mm|CornerRadius=0.2391mm|HoleSize=0mm|Usage=FLASHONLY|Rotation=270.000|XOffset=0mm|YOffset=0mm|HoleType=Round|Shape=RoundedRectangle|*
%AMROUNDEDRECTD38*
21,1,0.7532,0.7250,0,0,270.0*
21,1,0.2750,1.2032,0,0,270.0*
1,1,0.4782,-0.3625,-0.1375*
1,1,0.4782,-0.3625,0.1375*
1,1,0.4782,0.3625,0.1375*
1,1,0.4782,0.3625,-0.1375*
%
%ADD38ROUNDEDRECTD38*%
%ADD39R,1.2032X0.7532*%
%ADD40R,1.2032X0.7032*%
%ADD41R,1.2032X0.9032*%
%ADD42C,1.2032*%
%ADD43C,1.5032*%
%ADD44R,1.2032X1.2032*%
%ADD45C,2.1031*%
%ADD46C,3.3033*%
%ADD47C,0.9032*%
%ADD48C,1.0032*%
%ADD49C,0.8032*%
D30*
X359410Y354330D02*
D03*
D31*
X244910D02*
D03*
X473910D02*
D03*
D32*
X260190Y135890D02*
D03*
X240190Y126390D02*
D03*
D33*
Y145390D02*
D03*
D34*
X34500Y423800D02*
D03*
X80500D02*
D03*
Y68200D02*
D03*
X34500D02*
D03*
Y93600D02*
D03*
X80500D02*
D03*
X34500Y119000D02*
D03*
X80500D02*
D03*
X34500Y144400D02*
D03*
X80500D02*
D03*
X34500Y169800D02*
D03*
X80500D02*
D03*
X34500Y195200D02*
D03*
X80500D02*
D03*
X34500Y220600D02*
D03*
X80500D02*
D03*
X34500Y246000D02*
D03*
X80500D02*
D03*
X34500Y271400D02*
D03*
X80500D02*
D03*
X34500Y296800D02*
D03*
X80500D02*
D03*
X34500Y322200D02*
D03*
X80500D02*
D03*
X34500Y347600D02*
D03*
X80500D02*
D03*
X34500Y373000D02*
D03*
X80500D02*
D03*
X34500Y398400D02*
D03*
X80500D02*
D03*
D35*
X274320Y135490D02*
D03*
Y148990D02*
D03*
X259080Y188360D02*
D03*
Y174860D02*
D03*
X218440Y77870D02*
D03*
Y64370D02*
D03*
X139700Y77870D02*
D03*
Y64370D02*
D03*
X218440Y125330D02*
D03*
Y138830D02*
D03*
X208280Y174390D02*
D03*
Y160890D02*
D03*
Y202330D02*
D03*
Y188830D02*
D03*
X199390Y259950D02*
D03*
Y273450D02*
D03*
X214630Y259950D02*
D03*
Y273450D02*
D03*
X129540Y191370D02*
D03*
Y204870D02*
D03*
Y169310D02*
D03*
Y155810D02*
D03*
D36*
X237490Y44704D02*
D03*
X158750D02*
D03*
D37*
X250190D02*
D03*
X262890D02*
D03*
X275590D02*
D03*
X237490Y97704D02*
D03*
X250190D02*
D03*
X262890D02*
D03*
X275590D02*
D03*
X171450Y44704D02*
D03*
X184150D02*
D03*
X196850D02*
D03*
X158750Y97704D02*
D03*
X171450D02*
D03*
X184150D02*
D03*
X196850D02*
D03*
D38*
X171920Y125120D02*
D03*
Y144120D02*
D03*
X198920D02*
D03*
Y134620D02*
D03*
D39*
Y125120D02*
D03*
D40*
X187340Y196380D02*
D03*
Y187380D02*
D03*
Y178380D02*
D03*
Y169380D02*
D03*
X173340D02*
D03*
Y178380D02*
D03*
Y187380D02*
D03*
Y196380D02*
D03*
D41*
X172116Y296240D02*
D03*
X160116Y242240D02*
D03*
X172116Y287240D02*
D03*
Y278240D02*
D03*
Y269240D02*
D03*
Y260240D02*
D03*
Y251240D02*
D03*
X160116D02*
D03*
Y260240D02*
D03*
Y269240D02*
D03*
Y278240D02*
D03*
Y287240D02*
D03*
X172116Y242240D02*
D03*
X160116Y296240D02*
D03*
D42*
X57500Y411100D02*
D03*
Y80900D02*
D03*
D43*
Y385700D02*
D03*
Y106300D02*
D03*
D44*
X214630Y242316D02*
D03*
X161290Y215900D02*
D03*
X199390Y304800D02*
D03*
D45*
X431009Y465989D02*
D03*
Y26010D02*
D03*
X70990Y465989D02*
D03*
Y26010D02*
D03*
D46*
X470989Y465989D02*
D03*
Y26010D02*
D03*
X31010Y465989D02*
D03*
Y26010D02*
D03*
D47*
X26990Y424049D02*
D03*
X42010Y423800D02*
D03*
X72990D02*
D03*
X88010D02*
D03*
Y68200D02*
D03*
X72990D02*
D03*
X42010D02*
D03*
X26990Y68450D02*
D03*
Y93849D02*
D03*
X42010Y93600D02*
D03*
X72990D02*
D03*
X88010D02*
D03*
X26990Y119499D02*
D03*
X42010Y119249D02*
D03*
X72990D02*
D03*
X88010D02*
D03*
X26990Y144899D02*
D03*
X42010Y144649D02*
D03*
X72990D02*
D03*
X88010D02*
D03*
X26990Y170299D02*
D03*
X42010Y170049D02*
D03*
X72990D02*
D03*
X88010D02*
D03*
X26990Y195450D02*
D03*
X42010Y195200D02*
D03*
X72990D02*
D03*
X88010D02*
D03*
X26990Y220849D02*
D03*
X42010Y220600D02*
D03*
X72990D02*
D03*
X88010D02*
D03*
X26990Y246250D02*
D03*
X42010Y246000D02*
D03*
X72990D02*
D03*
X88010D02*
D03*
X26990Y271899D02*
D03*
X42010Y271649D02*
D03*
X72990D02*
D03*
X88010D02*
D03*
X26990Y297050D02*
D03*
X42010Y296800D02*
D03*
X72990D02*
D03*
X26990Y322699D02*
D03*
X42010Y322449D02*
D03*
X72990D02*
D03*
X88010D02*
D03*
X26990Y348099D02*
D03*
X42010Y347850D02*
D03*
X72990D02*
D03*
X88010D02*
D03*
X26990Y373250D02*
D03*
X42010Y373000D02*
D03*
X72990D02*
D03*
X88010D02*
D03*
X26990Y398649D02*
D03*
X42010Y398400D02*
D03*
X72990D02*
D03*
X88010D02*
D03*
D48*
Y296800D02*
D03*
X265430Y303530D02*
D03*
D49*
X186690Y154940D02*
D03*
X274320Y121920D02*
D03*
X261620Y147320D02*
D03*
X160020Y168910D02*
D03*
X199390Y288925D02*
D03*
X129540Y234950D02*
D03*
Y245745D02*
D03*
Y256540D02*
D03*
Y267335D02*
D03*
Y278130D02*
D03*
X208280Y101680D02*
D03*
X228854Y202438D02*
D03*
X129540Y137160D02*
D03*
Y218440D02*
D03*
X146050Y168910D02*
D03*
M02*
