G04*
G04 #@! TF.GenerationSoftware,Altium Limited,Altium Designer,19.1.9 (167)*
G04*
G04 Layer_Physical_Order=1*
G04 Layer_Color=255*
%FSLAX44Y44*%
%MOMM*%
G71*
G01*
G75*
%ADD10C,0.2540*%
%ADD19R,2.5000X5.1000*%
G04:AMPARAMS|DCode=20|XSize=0.8mm|YSize=0.9mm|CornerRadius=0.2mm|HoleSize=0mm|Usage=FLASHONLY|Rotation=90.000|XOffset=0mm|YOffset=0mm|HoleType=Round|Shape=RoundedRectangle|*
%AMROUNDEDRECTD20*
21,1,0.8000,0.5000,0,0,90.0*
21,1,0.4000,0.9000,0,0,90.0*
1,1,0.4000,0.2500,0.2000*
1,1,0.4000,0.2500,-0.2000*
1,1,0.4000,-0.2500,-0.2000*
1,1,0.4000,-0.2500,0.2000*
%
%ADD20ROUNDEDRECTD20*%
%ADD21R,0.9000X0.8000*%
%ADD22R,2.6000X1.7000*%
%ADD23R,1.0000X0.9000*%
%ADD24R,0.6000X1.5000*%
%ADD25O,0.6000X1.5000*%
G04:AMPARAMS|DCode=26|XSize=0.55mm|YSize=1mm|CornerRadius=0.1375mm|HoleSize=0mm|Usage=FLASHONLY|Rotation=270.000|XOffset=0mm|YOffset=0mm|HoleType=Round|Shape=RoundedRectangle|*
%AMROUNDEDRECTD26*
21,1,0.5500,0.7250,0,0,270.0*
21,1,0.2750,1.0000,0,0,270.0*
1,1,0.2750,-0.3625,-0.1375*
1,1,0.2750,-0.3625,0.1375*
1,1,0.2750,0.3625,0.1375*
1,1,0.2750,0.3625,-0.1375*
%
%ADD26ROUNDEDRECTD26*%
%ADD27R,1.0000X0.5500*%
%ADD28R,1.0000X0.5000*%
%ADD29R,1.0000X0.7000*%
%ADD50C,17.8000*%
%ADD51C,0.5080*%
%ADD52C,1.0000*%
%ADD53C,1.3000*%
%ADD54R,1.0000X1.0000*%
%ADD55C,1.8999*%
%ADD56C,3.1001*%
%ADD57C,0.7000*%
%ADD58C,0.8000*%
%ADD59C,0.6000*%
G36*
X493955Y474641D02*
X493955Y18119D01*
X479721Y3885D01*
X18119D01*
X3885Y18119D01*
X3885Y474641D01*
X18119Y488875D01*
X479721D01*
X493955Y474641D01*
D02*
G37*
%LPC*%
G36*
X431009Y478132D02*
X427866Y477719D01*
X424938Y476505D01*
X422422Y474576D01*
X420493Y472061D01*
X419280Y469132D01*
X418866Y465989D01*
X419280Y462846D01*
X420493Y459917D01*
X422422Y457402D01*
X424938Y455472D01*
X427866Y454259D01*
X431009Y453845D01*
X434152Y454259D01*
X437081Y455472D01*
X439596Y457402D01*
X441526Y459917D01*
X442739Y462846D01*
X443153Y465989D01*
X442739Y469132D01*
X441526Y472061D01*
X439596Y474576D01*
X437081Y476505D01*
X434152Y477719D01*
X431009Y478132D01*
D02*
G37*
G36*
X70990D02*
X67847Y477719D01*
X64918Y476505D01*
X62403Y474576D01*
X60473Y472061D01*
X59260Y469132D01*
X58846Y465989D01*
X59260Y462846D01*
X60473Y459917D01*
X62403Y457402D01*
X64918Y455472D01*
X67847Y454259D01*
X70990Y453845D01*
X74133Y454259D01*
X77061Y455472D01*
X79576Y457402D01*
X81506Y459917D01*
X82719Y462846D01*
X83133Y465989D01*
X82719Y469132D01*
X81506Y472061D01*
X79576Y474576D01*
X77061Y476505D01*
X74133Y477719D01*
X70990Y478132D01*
D02*
G37*
G36*
X470989Y484117D02*
X467452Y483768D01*
X464052Y482737D01*
X460918Y481061D01*
X458171Y478807D01*
X455916Y476060D01*
X454241Y472926D01*
X453210Y469525D01*
X452861Y465989D01*
X453210Y462452D01*
X454241Y459052D01*
X455916Y455918D01*
X458171Y453171D01*
X460918Y450916D01*
X464052Y449241D01*
X467452Y448209D01*
X470989Y447861D01*
X474525Y448209D01*
X477926Y449241D01*
X481060Y450916D01*
X483807Y453171D01*
X486062Y455918D01*
X487737Y459052D01*
X488768Y462452D01*
X489117Y465989D01*
X488768Y469525D01*
X487737Y472926D01*
X486062Y476060D01*
X483807Y478807D01*
X481060Y481061D01*
X477926Y482737D01*
X474525Y483768D01*
X470989Y484117D01*
D02*
G37*
G36*
X31010D02*
X27474Y483768D01*
X24073Y482737D01*
X20939Y481061D01*
X18192Y478807D01*
X15938Y476060D01*
X14262Y472926D01*
X13231Y469525D01*
X12882Y465989D01*
X13231Y462452D01*
X14262Y459052D01*
X15938Y455918D01*
X18192Y453171D01*
X20939Y450916D01*
X24073Y449241D01*
X27474Y448209D01*
X31010Y447861D01*
X34547Y448209D01*
X37947Y449241D01*
X41081Y450916D01*
X43828Y453171D01*
X46083Y455918D01*
X47758Y459052D01*
X48789Y462452D01*
X49138Y465989D01*
X48789Y469525D01*
X47758Y472926D01*
X46083Y476060D01*
X43828Y478807D01*
X41081Y481061D01*
X37947Y482737D01*
X34547Y483768D01*
X31010Y484117D01*
D02*
G37*
G36*
X50040Y434840D02*
X35770D01*
Y425070D01*
X50040D01*
Y434840D01*
D02*
G37*
G36*
X33230D02*
X18960D01*
Y425070D01*
X33230D01*
Y434840D01*
D02*
G37*
G36*
X96040D02*
X64960D01*
Y415850D01*
X63690Y415419D01*
X62878Y416478D01*
X61302Y417686D01*
X59468Y418446D01*
X57500Y418705D01*
X55532Y418446D01*
X53698Y417686D01*
X52122Y416478D01*
X51310Y415419D01*
X50040Y415850D01*
Y422530D01*
X35770D01*
Y412760D01*
X48833D01*
X49946Y411490D01*
X49895Y411100D01*
X49946Y410710D01*
X48833Y409440D01*
X35770D01*
Y399670D01*
X50040D01*
Y406350D01*
X51310Y406781D01*
X52122Y405722D01*
X53698Y404514D01*
X55532Y403754D01*
X57500Y403495D01*
X59468Y403754D01*
X61302Y404514D01*
X62878Y405722D01*
X63690Y406781D01*
X64960Y406350D01*
Y392740D01*
X63690Y392345D01*
X62059Y393596D01*
X59860Y394507D01*
X57500Y394818D01*
X55140Y394507D01*
X52941Y393596D01*
X51310Y392345D01*
X50040Y392740D01*
Y397130D01*
X35770D01*
Y387360D01*
X47638D01*
X48475Y386405D01*
X48382Y385700D01*
X48475Y384995D01*
X47638Y384040D01*
X35770D01*
Y374270D01*
X50040D01*
Y378660D01*
X51310Y379055D01*
X52941Y377804D01*
X55140Y376893D01*
X57500Y376582D01*
X59860Y376893D01*
X62059Y377804D01*
X63690Y379055D01*
X64960Y378660D01*
Y361960D01*
X96040D01*
Y384040D01*
X67363D01*
X66525Y384995D01*
X66618Y385700D01*
X66525Y386405D01*
X67363Y387360D01*
X96040D01*
Y394515D01*
X97831D01*
X135815Y356531D01*
Y294640D01*
X136111Y293153D01*
X136953Y291893D01*
X144573Y284273D01*
X145833Y283431D01*
X146016Y283395D01*
X145891Y282125D01*
X133533D01*
X131702Y283349D01*
X129540Y283778D01*
X127378Y283349D01*
X125546Y282124D01*
X124321Y280292D01*
X123891Y278130D01*
X124321Y275968D01*
X125546Y274136D01*
X126503Y273496D01*
Y271969D01*
X125546Y271329D01*
X124321Y269497D01*
X123891Y267335D01*
X124321Y265173D01*
X125546Y263341D01*
X126503Y262701D01*
Y261174D01*
X125546Y260534D01*
X124321Y258702D01*
X123891Y256540D01*
X124321Y254378D01*
X125546Y252546D01*
X126503Y251906D01*
Y250379D01*
X125546Y249739D01*
X124321Y247907D01*
X123891Y245745D01*
X124321Y243583D01*
X125546Y241751D01*
X126503Y241111D01*
Y239584D01*
X125546Y238944D01*
X124321Y237112D01*
X123891Y234950D01*
X124321Y232788D01*
X125546Y230956D01*
X127378Y229731D01*
X129540Y229301D01*
X131702Y229731D01*
X133534Y230956D01*
X134759Y232788D01*
X135189Y234950D01*
X135163Y235079D01*
X138439Y238355D01*
X152576D01*
Y236200D01*
X165924D01*
X165936Y234930D01*
X164761Y233755D01*
X156210D01*
X154723Y233459D01*
X153463Y232617D01*
X145843Y224997D01*
X145001Y223737D01*
X144705Y222250D01*
Y203200D01*
X145001Y201713D01*
X145843Y200453D01*
X161663Y184633D01*
X162923Y183791D01*
X164212Y183535D01*
X164087Y182265D01*
X154699D01*
X142955Y194009D01*
X141695Y194851D01*
X140208Y195147D01*
X137080D01*
Y211910D01*
X134719D01*
Y216220D01*
X134759Y216278D01*
X135189Y218440D01*
X134759Y220602D01*
X133534Y222434D01*
X131702Y223659D01*
X129540Y224088D01*
X127378Y223659D01*
X127320Y223619D01*
X121525D01*
X110590Y234555D01*
Y288290D01*
X110590Y288290D01*
X110195Y290272D01*
X109073Y291952D01*
X101807Y299218D01*
X100126Y300341D01*
X98144Y300735D01*
X96040D01*
Y307840D01*
X64960D01*
Y285760D01*
X96040D01*
Y288676D01*
X97213Y289162D01*
X100231Y286145D01*
Y232410D01*
X100625Y230428D01*
X101748Y228748D01*
X115717Y214778D01*
X115717Y214778D01*
X117398Y213655D01*
X119380Y213260D01*
X124361D01*
Y211910D01*
X122000D01*
Y198295D01*
X120773Y197725D01*
X102382Y216117D01*
X101122Y216959D01*
X99635Y217255D01*
X96040D01*
Y231640D01*
X64960D01*
Y209560D01*
X87354D01*
X87730Y209485D01*
X98026D01*
X118996Y188515D01*
X120256Y187673D01*
X121743Y187377D01*
X122000D01*
Y184330D01*
X137080D01*
Y187377D01*
X138599D01*
X149205Y176771D01*
Y176770D01*
X149325Y176167D01*
Y174724D01*
X148549Y174309D01*
X148055Y174160D01*
X146050Y174559D01*
X143888Y174129D01*
X142056Y172904D01*
X141983Y172795D01*
X137080D01*
Y176350D01*
X127994D01*
X118717Y185627D01*
X117457Y186469D01*
X115970Y186765D01*
X96040D01*
Y206240D01*
X64960D01*
Y188573D01*
X63787Y188087D01*
X61035Y190839D01*
Y214630D01*
X60739Y216117D01*
X59897Y217377D01*
X53927Y223347D01*
X52667Y224189D01*
X51180Y224485D01*
X50040D01*
Y231640D01*
X18960D01*
Y209560D01*
X50040D01*
Y214587D01*
X51213Y215073D01*
X53265Y213021D01*
Y189230D01*
X53561Y187743D01*
X54403Y186483D01*
X60753Y180133D01*
X62013Y179291D01*
X63500Y178995D01*
X64960D01*
Y158760D01*
X96040D01*
Y178995D01*
X114361D01*
X122000Y171356D01*
Y162270D01*
Y148770D01*
X124361D01*
Y139380D01*
X124321Y139322D01*
X123891Y137160D01*
X124321Y134998D01*
X125546Y133166D01*
X127378Y131941D01*
X127447Y131928D01*
X153618Y105757D01*
Y104496D01*
X153531Y104366D01*
X153102Y102204D01*
Y93204D01*
X153531Y91042D01*
X153618Y90912D01*
Y83473D01*
X152795Y82649D01*
X147240D01*
Y84910D01*
X132160D01*
Y70830D01*
Y65640D01*
X139700D01*
Y64370D01*
D01*
Y65640D01*
X147240D01*
Y72291D01*
X210900D01*
Y65640D01*
X218440D01*
X225980D01*
Y72691D01*
X232311D01*
Y54744D01*
X231950D01*
Y34664D01*
X243030D01*
Y54744D01*
X242670D01*
Y74894D01*
Y80846D01*
Y90984D01*
X242709Y91042D01*
X243139Y93204D01*
Y102204D01*
X242709Y104366D01*
X241484Y106198D01*
X240875Y106605D01*
X241260Y107875D01*
X246420D01*
X246805Y106605D01*
X246196Y106198D01*
X244971Y104366D01*
X244541Y102204D01*
Y93204D01*
X244971Y91042D01*
X246196Y89210D01*
X248028Y87985D01*
X250190Y87556D01*
X252352Y87985D01*
X254184Y89210D01*
X255409Y91042D01*
X255839Y93204D01*
Y100691D01*
X257109Y101457D01*
X257241Y101387D01*
Y93204D01*
X257671Y91042D01*
X258896Y89210D01*
X260728Y87985D01*
X262890Y87556D01*
X265052Y87985D01*
X266884Y89210D01*
X268109Y91042D01*
X268538Y93204D01*
Y100691D01*
X269809Y101457D01*
X269942Y101387D01*
Y93204D01*
X270371Y91042D01*
X271596Y89210D01*
X273428Y87985D01*
X275590Y87556D01*
X277752Y87985D01*
X279584Y89210D01*
X280809Y91042D01*
X281238Y93204D01*
Y102204D01*
X280809Y104366D01*
X279584Y106198D01*
X277752Y107423D01*
X275590Y107852D01*
X275461Y107827D01*
X263013Y120275D01*
X261753Y121117D01*
X260266Y121413D01*
X247620D01*
X246968Y122459D01*
X246979Y122683D01*
X247319Y124390D01*
Y128390D01*
X246967Y130161D01*
X245963Y131663D01*
X244461Y132667D01*
X242690Y133019D01*
X237690D01*
X235919Y132667D01*
X234417Y131663D01*
X234354Y131569D01*
X225980D01*
Y137560D01*
X218440D01*
Y140100D01*
X225980D01*
Y144681D01*
X226060D01*
X228042Y145075D01*
X229722Y146198D01*
X231977Y148452D01*
X233150Y147966D01*
Y138850D01*
X247230D01*
Y140211D01*
X252369D01*
X253270Y138940D01*
X253061Y137890D01*
Y137160D01*
X260190D01*
Y135890D01*
X261460D01*
Y129261D01*
X262690D01*
X264461Y129613D01*
X265510Y130314D01*
X266780Y129727D01*
Y128450D01*
X272242D01*
X272367Y127180D01*
X272158Y127139D01*
X270326Y125914D01*
X269101Y124082D01*
X268924Y123190D01*
X279716D01*
X279539Y124082D01*
X278314Y125914D01*
X276482Y127139D01*
X276273Y127180D01*
X276398Y128450D01*
X281860D01*
Y134220D01*
X274320D01*
Y136760D01*
X281860D01*
Y141950D01*
Y156030D01*
X266780D01*
Y152500D01*
X263840D01*
X263782Y152539D01*
X261620Y152969D01*
X259458Y152539D01*
X257626Y151314D01*
X257128Y150569D01*
X247230D01*
Y151930D01*
X237114D01*
X236628Y153103D01*
X247502Y163978D01*
X247502Y163978D01*
X248625Y165658D01*
X249018Y167633D01*
X250270Y168885D01*
X251540Y168359D01*
Y167820D01*
X266620D01*
Y183181D01*
X402582D01*
X404564Y183575D01*
X406245Y184697D01*
X478643Y257096D01*
X479765Y258776D01*
X480159Y260758D01*
Y326290D01*
X488950D01*
Y382370D01*
X458870D01*
Y326290D01*
X469800D01*
Y262903D01*
X400437Y193540D01*
X266620D01*
Y195400D01*
X264259D01*
Y265430D01*
X263865Y267412D01*
X262743Y269093D01*
X251560Y280275D01*
Y326290D01*
X259950D01*
Y382370D01*
X229870D01*
Y326290D01*
X241201D01*
Y278130D01*
X241595Y276148D01*
X242717Y274468D01*
X253901Y263285D01*
Y195400D01*
X251540D01*
Y180040D01*
X215820D01*
Y181430D01*
X215820D01*
Y181790D01*
X215820D01*
Y183288D01*
X232664D01*
X234646Y183683D01*
X236327Y184806D01*
X242423Y190902D01*
X243545Y192582D01*
X243939Y194564D01*
Y260350D01*
X243545Y262332D01*
X242423Y264013D01*
X229722Y276712D01*
X228042Y277835D01*
X226060Y278230D01*
X222170D01*
Y280490D01*
X207090D01*
Y280490D01*
X206930D01*
Y280490D01*
X204569D01*
Y286705D01*
X204609Y286763D01*
X205039Y288925D01*
X204609Y291087D01*
X203384Y292919D01*
X201552Y294144D01*
X199390Y294573D01*
X197228Y294144D01*
X195396Y292919D01*
X194171Y291087D01*
X193741Y288925D01*
X194171Y286763D01*
X194210Y286705D01*
Y280490D01*
X191850D01*
Y264125D01*
X179656D01*
Y272200D01*
Y281200D01*
Y292355D01*
X190830D01*
X192317Y292651D01*
X193577Y293493D01*
X197344Y297260D01*
X206930D01*
Y312340D01*
X191850D01*
Y302754D01*
X189221Y300125D01*
X179656D01*
Y302280D01*
X164001D01*
Y363124D01*
X163705Y364611D01*
X162863Y365871D01*
X102187Y426547D01*
X100927Y427389D01*
X99440Y427685D01*
X96040D01*
Y434840D01*
D02*
G37*
G36*
X33230Y422530D02*
X18960D01*
Y412760D01*
X33230D01*
Y422530D01*
D02*
G37*
G36*
Y409440D02*
X18960D01*
Y399670D01*
X33230D01*
Y409440D01*
D02*
G37*
G36*
Y397130D02*
X18960D01*
Y387360D01*
X33230D01*
Y397130D01*
D02*
G37*
G36*
Y384040D02*
X18960D01*
Y374270D01*
X33230D01*
Y384040D01*
D02*
G37*
G36*
X50040Y371730D02*
X35770D01*
Y361960D01*
X50040D01*
Y371730D01*
D02*
G37*
G36*
X33230D02*
X18960D01*
Y361960D01*
X33230D01*
Y371730D01*
D02*
G37*
G36*
X360680Y445918D02*
Y355600D01*
X450998D01*
X450619Y363313D01*
X449299Y372210D01*
X447114Y380935D01*
X444084Y389403D01*
X440238Y397534D01*
X435615Y405248D01*
X430257Y412472D01*
X424217Y419137D01*
X417552Y425177D01*
X410328Y430535D01*
X402614Y435158D01*
X394483Y439004D01*
X386015Y442034D01*
X377290Y444219D01*
X368393Y445539D01*
X360680Y445918D01*
D02*
G37*
G36*
X358140D02*
X350427Y445539D01*
X341530Y444219D01*
X332805Y442034D01*
X324337Y439004D01*
X316206Y435158D01*
X308492Y430535D01*
X301268Y425177D01*
X294603Y419137D01*
X288563Y412472D01*
X283206Y405248D01*
X278582Y397534D01*
X274736Y389403D01*
X271706Y380935D01*
X269521Y372210D01*
X268201Y363313D01*
X267822Y355600D01*
X358140D01*
Y445918D01*
D02*
G37*
G36*
X96040Y358640D02*
X64960D01*
Y336560D01*
X96040D01*
Y358640D01*
D02*
G37*
G36*
X50040D02*
X18960D01*
Y336560D01*
X50040D01*
Y358640D01*
D02*
G37*
G36*
X96040Y333240D02*
X64960D01*
Y311160D01*
X96040D01*
Y333240D01*
D02*
G37*
G36*
X50040D02*
X18960D01*
Y311160D01*
X50040D01*
Y333240D01*
D02*
G37*
G36*
X266700Y309959D02*
Y304800D01*
X271859D01*
X271802Y305237D01*
X271143Y306828D01*
X270094Y308194D01*
X268728Y309243D01*
X267137Y309902D01*
X266700Y309959D01*
D02*
G37*
G36*
X264160D02*
X263723Y309902D01*
X262132Y309243D01*
X260766Y308194D01*
X259717Y306828D01*
X259058Y305237D01*
X259001Y304800D01*
X264160D01*
Y309959D01*
D02*
G37*
G36*
X271859Y302260D02*
X266700D01*
Y297101D01*
X267137Y297158D01*
X268728Y297817D01*
X270094Y298866D01*
X271143Y300232D01*
X271802Y301823D01*
X271859Y302260D01*
D02*
G37*
G36*
X264160D02*
X259001D01*
X259058Y301823D01*
X259717Y300232D01*
X260766Y298866D01*
X262132Y297817D01*
X263723Y297158D01*
X264160Y297101D01*
Y302260D01*
D02*
G37*
G36*
X50040Y307840D02*
X18960D01*
Y285760D01*
X50040D01*
Y307840D01*
D02*
G37*
G36*
X450998Y353060D02*
X360680D01*
Y262742D01*
X368393Y263121D01*
X377290Y264441D01*
X386015Y266626D01*
X394483Y269656D01*
X402614Y273502D01*
X410328Y278125D01*
X417552Y283483D01*
X424217Y289523D01*
X430257Y296188D01*
X435615Y303412D01*
X440238Y311126D01*
X444084Y319257D01*
X447114Y327725D01*
X449299Y336450D01*
X450619Y345347D01*
X450998Y353060D01*
D02*
G37*
G36*
X358140D02*
X267822D01*
X268201Y345347D01*
X269521Y336450D01*
X271706Y327725D01*
X274736Y319257D01*
X278582Y311126D01*
X283206Y303412D01*
X288563Y296188D01*
X294603Y289523D01*
X301268Y283483D01*
X308492Y278125D01*
X316206Y273502D01*
X324337Y269656D01*
X332805Y266626D01*
X341530Y264441D01*
X350427Y263121D01*
X358140Y262742D01*
Y353060D01*
D02*
G37*
G36*
X96040Y282440D02*
X64960D01*
Y260360D01*
X96040D01*
Y282440D01*
D02*
G37*
G36*
X50040D02*
X18960D01*
Y260360D01*
X50040D01*
Y282440D01*
D02*
G37*
G36*
X96040Y257040D02*
X64960D01*
Y234960D01*
X96040D01*
Y257040D01*
D02*
G37*
G36*
X50040D02*
X18960D01*
Y234960D01*
X50040D01*
Y257040D01*
D02*
G37*
G36*
Y206240D02*
X18960D01*
Y184160D01*
X50040D01*
Y206240D01*
D02*
G37*
G36*
Y180840D02*
X18960D01*
Y158760D01*
X50040D01*
Y180840D01*
D02*
G37*
G36*
X96040Y155440D02*
X64960D01*
Y133360D01*
X96040D01*
Y155440D01*
D02*
G37*
G36*
X50040D02*
X18960D01*
Y133360D01*
X50040D01*
Y155440D01*
D02*
G37*
G36*
X258920Y134620D02*
X253061D01*
Y133890D01*
X253413Y132119D01*
X254417Y130617D01*
X255919Y129613D01*
X257690Y129261D01*
X258920D01*
Y134620D01*
D02*
G37*
G36*
X279716Y120650D02*
X275590D01*
Y116524D01*
X276482Y116701D01*
X278314Y117926D01*
X279539Y119758D01*
X279716Y120650D01*
D02*
G37*
G36*
X273050D02*
X268924D01*
X269101Y119758D01*
X270326Y117926D01*
X272158Y116701D01*
X273050Y116524D01*
Y120650D01*
D02*
G37*
G36*
X96040Y130040D02*
X64960D01*
Y113340D01*
X63690Y112945D01*
X62059Y114196D01*
X59860Y115107D01*
X57500Y115418D01*
X55140Y115107D01*
X52941Y114196D01*
X51310Y112945D01*
X50040Y113340D01*
Y130040D01*
X18960D01*
Y107960D01*
X47638D01*
X48475Y107005D01*
X48382Y106300D01*
X48475Y105595D01*
X47638Y104640D01*
X18960D01*
Y82560D01*
X48833D01*
X49946Y81290D01*
X49895Y80900D01*
X49946Y80510D01*
X48833Y79240D01*
X18960D01*
Y57160D01*
X50040D01*
Y76150D01*
X51310Y76581D01*
X52122Y75522D01*
X53698Y74314D01*
X55532Y73554D01*
X57500Y73295D01*
X59468Y73554D01*
X61302Y74314D01*
X62878Y75522D01*
X63690Y76581D01*
X64960Y76150D01*
Y57160D01*
X96040D01*
Y79240D01*
X66167D01*
X65054Y80510D01*
X65105Y80900D01*
X65054Y81290D01*
X66167Y82560D01*
X96040D01*
Y104640D01*
X67363D01*
X66525Y105595D01*
X66618Y106300D01*
X66525Y107005D01*
X67363Y107960D01*
X96040D01*
Y130040D01*
D02*
G37*
G36*
X225980Y63100D02*
X219710D01*
Y57330D01*
X225980D01*
Y63100D01*
D02*
G37*
G36*
X217170D02*
X210900D01*
Y57330D01*
X217170D01*
Y63100D01*
D02*
G37*
G36*
X147240D02*
X140970D01*
Y57330D01*
X147240D01*
Y63100D01*
D02*
G37*
G36*
X138430D02*
X132160D01*
Y57330D01*
X138430D01*
Y63100D01*
D02*
G37*
G36*
X198120Y54600D02*
Y45974D01*
X202498D01*
Y49204D01*
X202069Y51366D01*
X200844Y53198D01*
X199012Y54422D01*
X198120Y54600D01*
D02*
G37*
G36*
X185420D02*
Y45974D01*
X189799D01*
Y49204D01*
X189369Y51366D01*
X188144Y53198D01*
X186312Y54422D01*
X185420Y54600D01*
D02*
G37*
G36*
X172720D02*
Y45974D01*
X177099D01*
Y49204D01*
X176669Y51366D01*
X175444Y53198D01*
X173612Y54422D01*
X172720Y54600D01*
D02*
G37*
G36*
X164290Y54744D02*
X160020D01*
Y45974D01*
X164290D01*
Y54744D01*
D02*
G37*
G36*
X276860Y54600D02*
Y45974D01*
X281238D01*
Y49204D01*
X280809Y51366D01*
X279584Y53198D01*
X277752Y54422D01*
X276860Y54600D01*
D02*
G37*
G36*
X264160D02*
Y45974D01*
X268538D01*
Y49204D01*
X268109Y51366D01*
X266884Y53198D01*
X265052Y54422D01*
X264160Y54600D01*
D02*
G37*
G36*
X251460D02*
Y45974D01*
X255839D01*
Y49204D01*
X255409Y51366D01*
X254184Y53198D01*
X252352Y54422D01*
X251460Y54600D01*
D02*
G37*
G36*
X157480Y54744D02*
X153210D01*
Y45974D01*
X157480D01*
Y54744D01*
D02*
G37*
G36*
X195580Y54600D02*
X194688Y54422D01*
X192856Y53198D01*
X191631Y51366D01*
X191201Y49204D01*
Y45974D01*
X195580D01*
Y54600D01*
D02*
G37*
G36*
X182880D02*
X181988Y54422D01*
X180156Y53198D01*
X178931Y51366D01*
X178501Y49204D01*
Y45974D01*
X182880D01*
Y54600D01*
D02*
G37*
G36*
X170180D02*
X169288Y54422D01*
X167456Y53198D01*
X166231Y51366D01*
X165802Y49204D01*
Y45974D01*
X170180D01*
Y54600D01*
D02*
G37*
G36*
X274320D02*
X273428Y54422D01*
X271596Y53198D01*
X270371Y51366D01*
X269942Y49204D01*
Y45974D01*
X274320D01*
Y54600D01*
D02*
G37*
G36*
X261620D02*
X260728Y54422D01*
X258896Y53198D01*
X257671Y51366D01*
X257241Y49204D01*
Y45974D01*
X261620D01*
Y54600D01*
D02*
G37*
G36*
X248920D02*
X248028Y54422D01*
X246196Y53198D01*
X244971Y51366D01*
X244541Y49204D01*
Y45974D01*
X248920D01*
Y54600D01*
D02*
G37*
G36*
X268538Y43434D02*
X264160D01*
Y34808D01*
X265052Y34985D01*
X266884Y36210D01*
X268109Y38042D01*
X268538Y40204D01*
Y43434D01*
D02*
G37*
G36*
X202498D02*
X198120D01*
Y34808D01*
X199012Y34985D01*
X200844Y36210D01*
X202069Y38042D01*
X202498Y40204D01*
Y43434D01*
D02*
G37*
G36*
X189799D02*
X185420D01*
Y34808D01*
X186312Y34985D01*
X188144Y36210D01*
X189369Y38042D01*
X189799Y40204D01*
Y43434D01*
D02*
G37*
G36*
X177099D02*
X172720D01*
Y34808D01*
X173612Y34985D01*
X175444Y36210D01*
X176669Y38042D01*
X177099Y40204D01*
Y43434D01*
D02*
G37*
G36*
X281238D02*
X276860D01*
Y34808D01*
X277752Y34985D01*
X279584Y36210D01*
X280809Y38042D01*
X281238Y40204D01*
Y43434D01*
D02*
G37*
G36*
X255839D02*
X251460D01*
Y34808D01*
X252352Y34985D01*
X254184Y36210D01*
X255409Y38042D01*
X255839Y40204D01*
Y43434D01*
D02*
G37*
G36*
X274320D02*
X269942D01*
Y40204D01*
X270371Y38042D01*
X271596Y36210D01*
X273428Y34985D01*
X274320Y34808D01*
Y43434D01*
D02*
G37*
G36*
X248920D02*
X244541D01*
Y40204D01*
X244971Y38042D01*
X246196Y36210D01*
X248028Y34985D01*
X248920Y34808D01*
Y43434D01*
D02*
G37*
G36*
X195580D02*
X191201D01*
Y40204D01*
X191631Y38042D01*
X192856Y36210D01*
X194688Y34985D01*
X195580Y34808D01*
Y43434D01*
D02*
G37*
G36*
X182880D02*
X178501D01*
Y40204D01*
X178931Y38042D01*
X180156Y36210D01*
X181988Y34985D01*
X182880Y34808D01*
Y43434D01*
D02*
G37*
G36*
X170180D02*
X165802D01*
Y40204D01*
X166231Y38042D01*
X167456Y36210D01*
X169288Y34985D01*
X170180Y34808D01*
Y43434D01*
D02*
G37*
G36*
X261620D02*
X257241D01*
Y40204D01*
X257671Y38042D01*
X258896Y36210D01*
X260728Y34985D01*
X261620Y34808D01*
Y43434D01*
D02*
G37*
G36*
X164290D02*
X160020D01*
Y34664D01*
X164290D01*
Y43434D01*
D02*
G37*
G36*
X157480D02*
X153210D01*
Y34664D01*
X157480D01*
Y43434D01*
D02*
G37*
G36*
X431009Y38154D02*
X427866Y37740D01*
X424938Y36527D01*
X422422Y34597D01*
X420493Y32082D01*
X419280Y29153D01*
X418866Y26010D01*
X419280Y22867D01*
X420493Y19938D01*
X422422Y17423D01*
X424938Y15494D01*
X427866Y14280D01*
X431009Y13867D01*
X434152Y14280D01*
X437081Y15494D01*
X439596Y17423D01*
X441526Y19938D01*
X442739Y22867D01*
X443153Y26010D01*
X442739Y29153D01*
X441526Y32082D01*
X439596Y34597D01*
X437081Y36527D01*
X434152Y37740D01*
X431009Y38154D01*
D02*
G37*
G36*
X70990D02*
X67847Y37740D01*
X64918Y36527D01*
X62403Y34597D01*
X60473Y32082D01*
X59260Y29153D01*
X58846Y26010D01*
X59260Y22867D01*
X60473Y19938D01*
X62403Y17423D01*
X64918Y15494D01*
X67847Y14280D01*
X70990Y13867D01*
X74133Y14280D01*
X77061Y15494D01*
X79576Y17423D01*
X81506Y19938D01*
X82719Y22867D01*
X83133Y26010D01*
X82719Y29153D01*
X81506Y32082D01*
X79576Y34597D01*
X77061Y36527D01*
X74133Y37740D01*
X70990Y38154D01*
D02*
G37*
G36*
X470989Y44138D02*
X467452Y43789D01*
X464052Y42758D01*
X460918Y41083D01*
X458171Y38828D01*
X455916Y36081D01*
X454241Y32947D01*
X453210Y29547D01*
X452861Y26010D01*
X453210Y22473D01*
X454241Y19073D01*
X455916Y15939D01*
X458171Y13192D01*
X460918Y10938D01*
X464052Y9262D01*
X467452Y8231D01*
X470989Y7882D01*
X474525Y8231D01*
X477926Y9262D01*
X481060Y10938D01*
X483807Y13192D01*
X486062Y15939D01*
X487737Y19073D01*
X488768Y22473D01*
X489117Y26010D01*
X488768Y29547D01*
X487737Y32947D01*
X486062Y36081D01*
X483807Y38828D01*
X481060Y41083D01*
X477926Y42758D01*
X474525Y43789D01*
X470989Y44138D01*
D02*
G37*
G36*
X31010D02*
X27474Y43789D01*
X24073Y42758D01*
X20939Y41083D01*
X18192Y38828D01*
X15938Y36081D01*
X14262Y32947D01*
X13231Y29547D01*
X12882Y26010D01*
X13231Y22473D01*
X14262Y19073D01*
X15938Y15939D01*
X18192Y13192D01*
X20939Y10938D01*
X24073Y9262D01*
X27474Y8231D01*
X31010Y7882D01*
X34547Y8231D01*
X37947Y9262D01*
X41081Y10938D01*
X43828Y13192D01*
X46083Y15939D01*
X47758Y19073D01*
X48789Y22473D01*
X49138Y26010D01*
X48789Y29547D01*
X47758Y32947D01*
X46083Y36081D01*
X43828Y38828D01*
X41081Y41083D01*
X37947Y42758D01*
X34547Y43789D01*
X31010Y44138D01*
D02*
G37*
%LPD*%
G36*
X156231Y361515D02*
Y302280D01*
X152576D01*
Y290905D01*
X148929D01*
X143585Y296249D01*
Y358140D01*
X143289Y359627D01*
X142447Y360887D01*
X102187Y401147D01*
X100927Y401989D01*
X99440Y402285D01*
X96040D01*
Y409440D01*
X66167D01*
X65054Y410710D01*
X65105Y411100D01*
X65054Y411490D01*
X66167Y412760D01*
X96040D01*
Y419915D01*
X97831D01*
X156231Y361515D01*
D02*
G37*
G36*
X233580Y258205D02*
Y207448D01*
X232311Y206791D01*
X231016Y207657D01*
X230124Y207834D01*
Y202438D01*
Y197042D01*
X231016Y197219D01*
X231765Y197720D01*
X233063Y197098D01*
X233157Y196286D01*
X230519Y193647D01*
X215820D01*
Y201060D01*
X208280D01*
Y202330D01*
X207010D01*
Y209370D01*
X206109D01*
X205623Y210543D01*
X215341Y220262D01*
X216107Y220773D01*
X217377Y222043D01*
X218219Y223303D01*
X218515Y224790D01*
Y234776D01*
X222170D01*
Y249856D01*
X218515D01*
Y252910D01*
X222170D01*
Y267871D01*
X223915D01*
X233580Y258205D01*
D02*
G37*
G36*
X191850Y252910D02*
X206930D01*
Y252910D01*
X207090D01*
Y252910D01*
X210745D01*
Y249856D01*
X207090D01*
Y234776D01*
X210745D01*
Y226525D01*
X210359Y226267D01*
X195373Y211281D01*
X194531Y210021D01*
X194235Y208534D01*
Y201420D01*
X166024D01*
X165175Y202269D01*
Y208360D01*
X168830D01*
Y223440D01*
X156933D01*
X156447Y224613D01*
X157819Y225985D01*
X166370D01*
X167857Y226281D01*
X169117Y227123D01*
X172577Y230583D01*
X173419Y231843D01*
X173715Y233330D01*
Y236200D01*
X179656D01*
Y245200D01*
Y256355D01*
X191850D01*
Y252910D01*
D02*
G37*
G36*
X197913Y171243D02*
X199173Y170401D01*
X200660Y170105D01*
X200740D01*
Y162160D01*
X208280D01*
X215820D01*
Y167350D01*
Y169681D01*
X236615D01*
X237585Y168710D01*
X223915Y155040D01*
X215820D01*
Y159620D01*
X208280D01*
X200740D01*
Y153850D01*
X200256Y152781D01*
X197717Y150243D01*
X197213Y149487D01*
X195295D01*
X193768Y149183D01*
X192472Y148317D01*
X191607Y147022D01*
X191303Y145495D01*
Y142745D01*
X191607Y141217D01*
X192277Y140215D01*
X192395Y139370D01*
X192277Y138525D01*
X191607Y137522D01*
X191303Y135995D01*
Y135890D01*
X198920D01*
Y133350D01*
X191303D01*
Y133245D01*
X191607Y131718D01*
X191632Y131680D01*
X191380Y130410D01*
X191380D01*
X191380Y130410D01*
Y125653D01*
X190207Y125167D01*
X189305Y126069D01*
Y139700D01*
X189009Y141187D01*
X188167Y142447D01*
X183087Y147527D01*
X181827Y148369D01*
X180340Y148665D01*
X177848D01*
X177073Y149183D01*
X175545Y149487D01*
X168295D01*
X166768Y149183D01*
X166422Y148952D01*
X163905Y151469D01*
Y164843D01*
X164014Y164916D01*
X164087Y165025D01*
X165800D01*
Y164340D01*
X186070D01*
Y169380D01*
X187340D01*
Y170650D01*
X194880D01*
Y172480D01*
X196150Y173006D01*
X197913Y171243D01*
D02*
G37*
G36*
X162353Y142033D02*
X163613Y141191D01*
X164780Y140959D01*
X165472Y139922D01*
X166768Y139057D01*
X168295Y138753D01*
X175545D01*
X177073Y139057D01*
X178368Y139922D01*
X179584Y140042D01*
X181535Y138091D01*
Y124460D01*
X181831Y122973D01*
X182673Y121713D01*
X187568Y116818D01*
X187082Y115645D01*
X183219D01*
X178329Y120534D01*
X178368Y120922D01*
X179233Y122218D01*
X179537Y123745D01*
Y126495D01*
X179233Y128022D01*
X178368Y129318D01*
X177073Y130183D01*
X175545Y130487D01*
X168295D01*
X166768Y130183D01*
X165473Y129318D01*
X164209Y129575D01*
X157095Y136689D01*
Y145496D01*
X158365Y146022D01*
X162353Y142033D01*
D02*
G37*
G36*
X142056Y164916D02*
X143888Y163691D01*
X146050Y163262D01*
X148055Y163660D01*
X148549Y163511D01*
X149325Y163096D01*
Y135080D01*
X149621Y133593D01*
X150463Y132333D01*
X160363Y122433D01*
X161623Y121591D01*
X163110Y121295D01*
X165223D01*
X165472Y120922D01*
X166768Y120057D01*
X168295Y119753D01*
X168471D01*
X169173Y118703D01*
X180265Y107611D01*
Y106271D01*
X180156Y106198D01*
X178931Y104366D01*
X178501Y102204D01*
Y93204D01*
X178931Y91042D01*
X180156Y89210D01*
X181988Y87985D01*
X184150Y87556D01*
X186312Y87985D01*
X188144Y89210D01*
X189369Y91042D01*
X189799Y93204D01*
Y102204D01*
X189369Y104366D01*
X188144Y106198D01*
X188035Y106271D01*
Y107611D01*
X188299Y107875D01*
X193080D01*
X193465Y106605D01*
X192856Y106198D01*
X191631Y104366D01*
X191201Y102204D01*
Y93204D01*
X191631Y91042D01*
X192856Y89210D01*
X194688Y87985D01*
X196850Y87556D01*
X199012Y87985D01*
X200844Y89210D01*
X202069Y91042D01*
X202498Y93204D01*
Y93819D01*
X204304D01*
X205791Y94115D01*
X207051Y94957D01*
X208151Y96057D01*
X208280Y96031D01*
X210442Y96461D01*
X212274Y97686D01*
X213499Y99518D01*
X213929Y101680D01*
X213499Y103841D01*
X212274Y105674D01*
X210880Y106605D01*
X211266Y107875D01*
X233720D01*
X234105Y106605D01*
X233496Y106198D01*
X232271Y104366D01*
X231842Y102204D01*
Y93204D01*
X232271Y91042D01*
X232311Y90984D01*
Y83049D01*
X225980D01*
Y84910D01*
X210900D01*
Y82649D01*
X164705D01*
X163978Y83377D01*
Y91088D01*
X164398Y93204D01*
Y102204D01*
X163978Y104320D01*
Y107902D01*
X163583Y109884D01*
X162460Y111565D01*
X162460Y111565D01*
X134772Y139253D01*
X134759Y139322D01*
X134719Y139380D01*
Y148770D01*
X137080D01*
Y165025D01*
X141983D01*
X142056Y164916D01*
D02*
G37*
%LPC*%
G36*
X227584Y207834D02*
X226692Y207657D01*
X224860Y206432D01*
X223635Y204600D01*
X223458Y203708D01*
X227584D01*
Y207834D01*
D02*
G37*
G36*
X215820Y209370D02*
X209550D01*
Y203600D01*
X215820D01*
Y209370D01*
D02*
G37*
G36*
X227584Y201168D02*
X223458D01*
X223635Y200276D01*
X224860Y198444D01*
X226692Y197219D01*
X227584Y197042D01*
Y201168D01*
D02*
G37*
G36*
X194880Y168110D02*
X188610D01*
Y164340D01*
X194880D01*
Y168110D01*
D02*
G37*
G36*
X187960Y160336D02*
Y156210D01*
X192086D01*
X191909Y157102D01*
X190684Y158934D01*
X188852Y160159D01*
X187960Y160336D01*
D02*
G37*
G36*
X185420D02*
X184528Y160159D01*
X182696Y158934D01*
X181471Y157102D01*
X181294Y156210D01*
X185420D01*
Y160336D01*
D02*
G37*
G36*
X192086Y153670D02*
X187960D01*
Y149544D01*
X188852Y149721D01*
X190684Y150946D01*
X191909Y152778D01*
X192086Y153670D01*
D02*
G37*
G36*
X185420D02*
X181294D01*
X181471Y152778D01*
X182696Y150946D01*
X184528Y149721D01*
X185420Y149544D01*
Y153670D01*
D02*
G37*
G36*
X171450Y107852D02*
X169288Y107423D01*
X167456Y106198D01*
X166231Y104366D01*
X165802Y102204D01*
Y93204D01*
X166231Y91042D01*
X167456Y89210D01*
X169288Y87985D01*
X171450Y87556D01*
X173612Y87985D01*
X175444Y89210D01*
X176669Y91042D01*
X177099Y93204D01*
Y102204D01*
X176669Y104366D01*
X175444Y106198D01*
X173612Y107423D01*
X171450Y107852D01*
D02*
G37*
%LPD*%
G36*
X52941Y98404D02*
X55140Y97493D01*
X57500Y97182D01*
X59860Y97493D01*
X62059Y98404D01*
X63690Y99655D01*
X64960Y99260D01*
Y85650D01*
X63690Y85219D01*
X62878Y86278D01*
X61302Y87486D01*
X59468Y88246D01*
X57500Y88505D01*
X55532Y88246D01*
X53698Y87486D01*
X52122Y86278D01*
X51310Y85219D01*
X50040Y85650D01*
Y99260D01*
X51310Y99655D01*
X52941Y98404D01*
D02*
G37*
D10*
X186690Y154940D02*
X187340Y155590D01*
Y169380D01*
X196850Y161290D02*
X207880D01*
X208280Y160890D01*
X251206Y45974D02*
X273558D01*
X292100Y55880D02*
Y115570D01*
X285750Y121920D02*
X292100Y115570D01*
X274320Y121920D02*
X285750D01*
X42010Y220600D02*
X51180D01*
X34500D02*
X42010D01*
X63500Y182880D02*
X115970D01*
X125810Y173040D01*
Y172540D02*
Y173040D01*
Y172540D02*
X129040Y169310D01*
X129540D01*
X57150Y189230D02*
X63500Y182880D01*
X57150Y189230D02*
Y214630D01*
X51180Y220600D02*
X57150Y214630D01*
X280924Y44704D02*
X292100Y55880D01*
X275590Y44704D02*
X280924D01*
X165100Y144780D02*
X180340D01*
X185420Y139700D01*
Y124460D02*
Y139700D01*
Y124460D02*
X192352Y117528D01*
X189230Y111760D02*
X253334D01*
X121743Y191262D02*
X140208D01*
X171920Y121450D02*
X181610Y111760D01*
X171920Y121450D02*
Y125120D01*
X185420Y111760D02*
X186690D01*
X189230D01*
X184150Y109220D02*
X186690Y111760D01*
X181610D02*
X185420D01*
X184150Y110490D02*
X185420Y111760D01*
X184150Y109220D02*
Y110490D01*
X181610Y111760D02*
X184150Y109220D01*
X154940Y178380D02*
X173340D01*
X153090D02*
X154940D01*
X153210Y135080D02*
Y176650D01*
X154940Y178380D01*
X153090Y176770D02*
X153210Y176650D01*
X153090Y176770D02*
Y178380D01*
X153210Y135080D02*
X163110Y125180D01*
X171790D01*
X160020Y149860D02*
X165100Y144780D01*
X160020Y168910D02*
X171310D01*
X160020Y149860D02*
Y168910D01*
X171310D02*
X172870D01*
X173340Y169380D01*
X161290Y200660D02*
Y215900D01*
Y200660D02*
X165570Y196380D01*
X173340D01*
X170840Y169380D02*
X171310Y168910D01*
X136830Y242240D02*
X160116D01*
X129540Y234950D02*
X136830Y242240D01*
X129540Y256540D02*
X133240Y260240D01*
X160116D01*
X130810Y247650D02*
X134400Y251240D01*
X160116D01*
X130810Y269240D02*
X160116D01*
X129540Y267970D02*
X130810Y269240D01*
X129540Y278130D02*
X129650Y278240D01*
X160116D01*
X99440Y398400D02*
X139700Y358140D01*
Y294640D02*
Y358140D01*
Y294640D02*
X147320Y287020D01*
X80500Y398400D02*
X88010D01*
X147320Y287020D02*
X159896D01*
X160116Y287240D01*
X88010Y398400D02*
X99440D01*
X88010Y423800D02*
X99440D01*
X80500D02*
X88010D01*
X160116Y296240D02*
Y363124D01*
X99440Y423800D02*
X160116Y363124D01*
X196850Y44704D02*
X215042D01*
X184150D02*
X196850D01*
X171450D02*
X184150D01*
X158750D02*
X171450D01*
X145796D02*
X158750D01*
X215042D02*
X215900Y45562D01*
X196850Y97704D02*
X204304D01*
X208280Y101680D01*
X170840Y169380D02*
X173340D01*
X200660Y173990D02*
X207380D01*
X207780Y174390D01*
X196850Y177800D02*
X200660Y173990D01*
X187920Y177800D02*
X196850D01*
X187340Y178380D02*
X187920Y177800D01*
X184150Y97704D02*
Y109220D01*
X139700Y50800D02*
X145796Y44704D01*
X139700Y50800D02*
Y64370D01*
X232410Y31750D02*
X245618D01*
X218598Y45562D02*
X232410Y31750D01*
X218598Y45562D02*
Y48260D01*
X245618Y31750D02*
X250190Y36322D01*
X215900Y45562D02*
X218598D01*
Y48260D02*
Y64212D01*
X215900Y45562D02*
X218598Y48260D01*
X218440Y64370D02*
X218598Y64212D01*
X34500Y220600D02*
X35390Y219710D01*
X192352Y117528D02*
X260266D01*
X253334Y111760D02*
X262890Y102204D01*
X140208Y191262D02*
X153090Y178380D01*
X99635Y213370D02*
X121743Y191262D01*
X208280Y202330D02*
X228746D01*
X228854Y202438D01*
X213360Y223520D02*
X214630Y224790D01*
Y259950D01*
X187340Y187380D02*
X206830D01*
X198120Y208534D02*
X213106Y223520D01*
X213360D01*
X198120Y198374D02*
Y208534D01*
X196126Y196380D02*
X198120Y198374D01*
X187340Y196380D02*
X196126D01*
X250190Y36322D02*
Y44704D01*
X218440Y64370D02*
X220480D01*
X217940D02*
X218440D01*
X129735Y169310D02*
X130310D01*
X129540D02*
X129735D01*
X87730Y213370D02*
X99635D01*
X80500Y220600D02*
X87730Y213370D01*
X169830Y233330D02*
Y242240D01*
X166370Y229870D02*
X169830Y233330D01*
X156210Y229870D02*
X166370D01*
X148590Y222250D02*
X156210Y229870D01*
X148590Y203200D02*
Y222250D01*
Y203200D02*
X164410Y187380D01*
X173340D01*
X190830Y296240D02*
X199390Y304800D01*
X169830Y296240D02*
X190830D01*
X199100Y260240D02*
X199390Y259950D01*
X169830Y260240D02*
X199100D01*
X169830D02*
X170120Y259950D01*
X139700Y64370D02*
X140200D01*
X275590Y97704D02*
Y102204D01*
X262890Y97704D02*
Y102204D01*
X129735Y169310D02*
X130135Y168910D01*
X260266Y117528D02*
X275590Y102204D01*
X169830Y287240D02*
X170355Y287765D01*
X169830Y278240D02*
Y287240D01*
Y296240D01*
Y269240D02*
Y278240D01*
Y251240D02*
Y260240D01*
Y269240D01*
Y242240D02*
Y251240D01*
Y242240D02*
X170180Y241890D01*
X130135Y168910D02*
X146050D01*
X34500Y220600D02*
X39000D01*
D19*
X244910Y354330D02*
D03*
X473910D02*
D03*
D20*
X260190Y135890D02*
D03*
X240190Y126390D02*
D03*
D21*
Y145390D02*
D03*
D22*
X34500Y423800D02*
D03*
X80500D02*
D03*
Y68200D02*
D03*
X34500D02*
D03*
Y93600D02*
D03*
X80500D02*
D03*
X34500Y119000D02*
D03*
X80500D02*
D03*
X34500Y144400D02*
D03*
X80500D02*
D03*
X34500Y169800D02*
D03*
X80500D02*
D03*
X34500Y195200D02*
D03*
X80500D02*
D03*
X34500Y220600D02*
D03*
X80500D02*
D03*
X34500Y246000D02*
D03*
X80500D02*
D03*
X34500Y271400D02*
D03*
X80500D02*
D03*
X34500Y296800D02*
D03*
X80500D02*
D03*
X34500Y322200D02*
D03*
X80500D02*
D03*
X34500Y347600D02*
D03*
X80500D02*
D03*
X34500Y373000D02*
D03*
X80500D02*
D03*
X34500Y398400D02*
D03*
X80500D02*
D03*
D23*
X274320Y135490D02*
D03*
Y148990D02*
D03*
X259080Y188360D02*
D03*
Y174860D02*
D03*
X218440Y77870D02*
D03*
Y64370D02*
D03*
X139700Y77870D02*
D03*
Y64370D02*
D03*
X218440Y125330D02*
D03*
Y138830D02*
D03*
X208280Y174390D02*
D03*
Y160890D02*
D03*
Y202330D02*
D03*
Y188830D02*
D03*
X199390Y259950D02*
D03*
Y273450D02*
D03*
X214630Y259950D02*
D03*
Y273450D02*
D03*
X129540Y191370D02*
D03*
Y204870D02*
D03*
Y169310D02*
D03*
Y155810D02*
D03*
D24*
X237490Y44704D02*
D03*
X158750D02*
D03*
D25*
X250190D02*
D03*
X262890D02*
D03*
X275590D02*
D03*
X237490Y97704D02*
D03*
X250190D02*
D03*
X262890D02*
D03*
X275590D02*
D03*
X171450Y44704D02*
D03*
X184150D02*
D03*
X196850D02*
D03*
X158750Y97704D02*
D03*
X171450D02*
D03*
X184150D02*
D03*
X196850D02*
D03*
D26*
X171920Y125120D02*
D03*
Y144120D02*
D03*
X198920D02*
D03*
Y134620D02*
D03*
D27*
Y125120D02*
D03*
D28*
X187340Y196380D02*
D03*
Y187380D02*
D03*
Y178380D02*
D03*
Y169380D02*
D03*
X173340D02*
D03*
Y178380D02*
D03*
Y187380D02*
D03*
Y196380D02*
D03*
D29*
X172116Y296240D02*
D03*
X160116Y242240D02*
D03*
X172116Y287240D02*
D03*
Y278240D02*
D03*
Y269240D02*
D03*
Y260240D02*
D03*
Y251240D02*
D03*
X160116D02*
D03*
Y260240D02*
D03*
Y269240D02*
D03*
Y278240D02*
D03*
Y287240D02*
D03*
X172116Y242240D02*
D03*
X160116Y296240D02*
D03*
D50*
X359410Y354330D02*
D03*
D51*
X246380Y278130D02*
Y352860D01*
Y278130D02*
X259080Y265430D01*
Y188360D02*
Y265430D01*
X244910Y354330D02*
X246380Y352860D01*
X474980Y260758D02*
Y353260D01*
X473910Y354330D02*
X474980Y353260D01*
X402582Y188360D02*
X474980Y260758D01*
X259080Y188360D02*
X402582D01*
X204660Y149860D02*
X226060D01*
X201380Y146580D02*
X204660Y149860D01*
X226060D02*
X243840Y167640D01*
X208250Y174860D02*
X238760D01*
X207780Y174390D02*
X208250Y174860D01*
X243840Y167640D02*
Y169780D01*
X274320Y121920D02*
Y135490D01*
X260190Y135890D02*
X273920D01*
X217430Y125120D02*
X218040Y125730D01*
X219500Y126390D02*
X240190D01*
X218440Y125330D02*
X219500Y126390D01*
X261620Y147320D02*
X272650D01*
X274320Y148990D01*
X261371Y147320D02*
X261620D01*
X259441Y145390D02*
X261371Y147320D01*
X240190Y145390D02*
X259441D01*
X218440Y138830D02*
X231784D01*
X234724Y135890D01*
X260190D01*
X201380Y144330D02*
Y146580D01*
X158798Y81328D02*
Y107902D01*
X129540Y137160D02*
X158798Y107902D01*
X199390Y273450D02*
Y288925D01*
X81744Y295556D02*
X98144D01*
X238760Y174860D02*
X243840D01*
X238760D02*
X243840Y169780D01*
X248920Y174860D02*
X259080D01*
X243840D02*
X248920D01*
X243840Y169780D02*
Y174860D01*
Y169780D02*
X248920Y174860D01*
X208642Y188468D02*
X232664D01*
X238760Y194564D01*
Y260350D01*
X209042Y138684D02*
X217794D01*
X217940Y138830D01*
X205188Y134830D02*
X209042Y138684D01*
X199130Y134830D02*
X205188D01*
X198920Y134620D02*
X199130Y134830D01*
X217940Y138830D02*
X218440D01*
X226060Y273050D02*
X238760Y260350D01*
X215030Y273050D02*
X226060D01*
X214630Y273450D02*
X215030Y273050D01*
X199390Y273450D02*
X214630D01*
X198920Y125120D02*
X217430D01*
X218040Y125730D02*
X218440Y125330D01*
X201170Y144120D02*
X201380Y144330D01*
X198920Y144120D02*
X201170D01*
X259080Y174860D02*
X259950Y173990D01*
X162560Y77470D02*
X218040D01*
X154940D02*
X162560D01*
X158798Y81232D02*
X162560Y77470D01*
X158798Y81232D02*
Y81328D01*
X140100Y77470D02*
X154940D01*
X158798Y81328D01*
X139700Y77870D02*
X140100Y77470D01*
X237490Y74894D02*
Y80846D01*
X234514Y77870D02*
X237490Y74894D01*
Y44704D02*
Y74894D01*
X234514Y77870D02*
X237490Y80846D01*
Y97704D01*
X218440Y77870D02*
X234514D01*
X218040Y77470D02*
X218440Y77870D01*
X129540Y137160D02*
Y155810D01*
Y204870D02*
Y218440D01*
X119380D02*
X129540D01*
X105410Y232410D02*
X119380Y218440D01*
X105410Y232410D02*
Y288290D01*
X98144Y295556D02*
X105410Y288290D01*
X80500Y296800D02*
X81744Y295556D01*
D52*
X57500Y411100D02*
D03*
Y80900D02*
D03*
D53*
Y385700D02*
D03*
Y106300D02*
D03*
D54*
X214630Y242316D02*
D03*
X161290Y215900D02*
D03*
X199390Y304800D02*
D03*
D55*
X431009Y465989D02*
D03*
Y26010D02*
D03*
X70990Y465989D02*
D03*
Y26010D02*
D03*
D56*
X470989Y465989D02*
D03*
Y26010D02*
D03*
X31010Y465989D02*
D03*
Y26010D02*
D03*
D57*
X26990Y424049D02*
D03*
X42010Y423800D02*
D03*
X72990D02*
D03*
X88010D02*
D03*
Y68200D02*
D03*
X72990D02*
D03*
X42010D02*
D03*
X26990Y68450D02*
D03*
Y93849D02*
D03*
X42010Y93600D02*
D03*
X72990D02*
D03*
X88010D02*
D03*
X26990Y119499D02*
D03*
X42010Y119249D02*
D03*
X72990D02*
D03*
X88010D02*
D03*
X26990Y144899D02*
D03*
X42010Y144649D02*
D03*
X72990D02*
D03*
X88010D02*
D03*
X26990Y170299D02*
D03*
X42010Y170049D02*
D03*
X72990D02*
D03*
X88010D02*
D03*
X26990Y195450D02*
D03*
X42010Y195200D02*
D03*
X72990D02*
D03*
X88010D02*
D03*
X26990Y220849D02*
D03*
X42010Y220600D02*
D03*
X72990D02*
D03*
X88010D02*
D03*
X26990Y246250D02*
D03*
X42010Y246000D02*
D03*
X72990D02*
D03*
X88010D02*
D03*
X26990Y271899D02*
D03*
X42010Y271649D02*
D03*
X72990D02*
D03*
X88010D02*
D03*
X26990Y297050D02*
D03*
X42010Y296800D02*
D03*
X72990D02*
D03*
X26990Y322699D02*
D03*
X42010Y322449D02*
D03*
X72990D02*
D03*
X88010D02*
D03*
X26990Y348099D02*
D03*
X42010Y347850D02*
D03*
X72990D02*
D03*
X88010D02*
D03*
X26990Y373250D02*
D03*
X42010Y373000D02*
D03*
X72990D02*
D03*
X88010D02*
D03*
X26990Y398649D02*
D03*
X42010Y398400D02*
D03*
X72990D02*
D03*
X88010D02*
D03*
D58*
Y296800D02*
D03*
X265430Y303530D02*
D03*
D59*
X186690Y154940D02*
D03*
X274320Y121920D02*
D03*
X261620Y147320D02*
D03*
X160020Y168910D02*
D03*
X199390Y288925D02*
D03*
X129540Y234950D02*
D03*
Y245745D02*
D03*
Y256540D02*
D03*
Y267335D02*
D03*
Y278130D02*
D03*
X208280Y101680D02*
D03*
X228854Y202438D02*
D03*
X129540Y137160D02*
D03*
Y218440D02*
D03*
X146050Y168910D02*
D03*
M02*
