G04*
G04 #@! TF.GenerationSoftware,Altium Limited,Altium Designer,19.1.9 (167)*
G04*
G04 Layer_Color=16711935*
%FSLAX44Y44*%
%MOMM*%
G71*
G01*
G75*
%ADD13C,0.1000*%
%ADD62C,0.0500*%
D13*
X246240Y120690D02*
X254240D01*
X246240Y151090D02*
X254240D01*
Y120690D02*
Y151090D01*
X246240Y120690D02*
Y151090D01*
X269520Y133490D02*
X279120D01*
X269520Y150990D02*
X279120D01*
X269520Y133490D02*
Y150990D01*
X279120Y133490D02*
Y150990D01*
X263580Y173110D02*
Y190110D01*
X254580Y173110D02*
Y190110D01*
X263580D01*
X254580Y173110D02*
X263580D01*
X223240Y62370D02*
Y79870D01*
X213640Y62370D02*
Y79870D01*
X223240D01*
X213640Y62370D02*
X223240D01*
X144500D02*
Y79870D01*
X134900Y62370D02*
Y79870D01*
X144500D01*
X134900Y62370D02*
X144500D01*
X176670Y149870D02*
X194170D01*
X176670Y119370D02*
X194170D01*
X176670D02*
Y149870D01*
X194170Y119370D02*
Y149870D01*
X213640Y123330D02*
Y140830D01*
X223240Y123330D02*
Y140830D01*
X213640Y123330D02*
X223240D01*
X213640Y140830D02*
X223240D01*
X213080Y158890D02*
Y176390D01*
X203480Y158890D02*
Y176390D01*
X213080D01*
X203480Y158890D02*
X213080D01*
Y186830D02*
Y204330D01*
X203480Y186830D02*
Y204330D01*
X213080D01*
X203480Y186830D02*
X213080D01*
X194890Y258200D02*
Y275200D01*
X203890Y258200D02*
Y275200D01*
X194890Y258200D02*
X203890D01*
X194890Y275200D02*
X203890D01*
X210130Y258200D02*
Y275200D01*
X219130Y258200D02*
Y275200D01*
X210130Y258200D02*
X219130D01*
X210130Y275200D02*
X219130D01*
X125040Y189620D02*
Y206620D01*
X134040Y189620D02*
Y206620D01*
X125040Y189620D02*
X134040D01*
X125040Y206620D02*
X134040D01*
X134040Y154060D02*
Y171060D01*
X125040Y154060D02*
Y171060D01*
X134040D01*
X125040Y154060D02*
X134040D01*
D62*
X187840Y166880D02*
Y198880D01*
X172840Y166880D02*
X187840D01*
X172840D02*
Y198880D01*
X187840D01*
M02*
