G04*
G04 #@! TF.GenerationSoftware,Altium Limited,Altium Designer,19.1.9 (167)*
G04*
G04 Layer_Color=255*
%FSLAX44Y44*%
%MOMM*%
G71*
G01*
G75*
%ADD22R,2.6000X1.7000*%
%ADD52C,1.0000*%
%ADD53C,1.3000*%
%ADD54R,1.0000X1.0000*%
%ADD55C,1.8999*%
%ADD56C,3.1001*%
D22*
X80500Y296800D02*
D03*
Y271400D02*
D03*
Y322200D02*
D03*
Y246000D02*
D03*
Y347600D02*
D03*
Y373000D02*
D03*
Y398400D02*
D03*
Y423800D02*
D03*
X34500D02*
D03*
Y398400D02*
D03*
Y373000D02*
D03*
Y347600D02*
D03*
Y322200D02*
D03*
Y296800D02*
D03*
Y271400D02*
D03*
Y246000D02*
D03*
Y220600D02*
D03*
Y195200D02*
D03*
X80500Y220600D02*
D03*
Y195200D02*
D03*
X34500Y169800D02*
D03*
X80500D02*
D03*
X34500Y144400D02*
D03*
X80500D02*
D03*
X34500Y119000D02*
D03*
X80500D02*
D03*
X34500Y93600D02*
D03*
X80500D02*
D03*
X34500Y68200D02*
D03*
X80500D02*
D03*
D52*
X57500Y411100D02*
D03*
Y80900D02*
D03*
D53*
Y385700D02*
D03*
Y106300D02*
D03*
D54*
X214630Y242316D02*
D03*
X161290Y215900D02*
D03*
X199390Y304800D02*
D03*
D55*
X431009Y465989D02*
D03*
Y26010D02*
D03*
X70990Y465989D02*
D03*
Y26010D02*
D03*
D56*
X470989Y465989D02*
D03*
Y26010D02*
D03*
X31010Y465989D02*
D03*
Y26010D02*
D03*
M02*
